<?xml version="1.0" encoding="UTF-8"?>
<!DOCTYPE svg PUBLIC "-//W3C//DTD SVG 1.1//EN" "http://www.w3.org/Graphics/SVG/1.1/DTD/svg11.dtd">
<!-- Creator: CorelDRAW -->
<svg xmlns="http://www.w3.org/2000/svg" xml:space="preserve" width="1.85337in" height="0.763268in" version="1.1" style="shape-rendering:geometricPrecision; text-rendering:geometricPrecision; image-rendering:optimizeQuality; fill-rule:evenodd; clip-rule:evenodd"
viewBox="0 0 1055.11 434.52"
 xmlns:xlink="http://www.w3.org/1999/xlink"
 xmlns:xodm="http://www.corel.com/coreldraw/odm/2003">
 <defs>
  <style type="text/css">
   <![CDATA[
    .str1 {stroke:#FEFEFE;stroke-width:1.58;stroke-miterlimit:2.61313}
    .str2 {stroke:#0C58AE;stroke-width:1.58;stroke-miterlimit:2.61313}
    .str0 {stroke:#4BD9EE;stroke-width:3.95;stroke-miterlimit:2.61313}
    .fil2 {fill:#FEFEFE}
    .fil0 {fill:#0C58AE}
    .fil3 {fill:#FEFEFE;fill-rule:nonzero}
    .fil4 {fill:#23A6CC;fill-rule:nonzero}
    .fil1 {fill:url(#id0)}
   ]]>
  </style>
  <linearGradient id="id0" gradientUnits="objectBoundingBox" x1="4.61747%" y1="29.0138%" x2="95.3826%" y2="70.9862%">
   <stop offset="0" style="stop-opacity:1; stop-color:#1A75C9"/>
   <stop offset="1" style="stop-opacity:1; stop-color:#26A9CE"/>
  </linearGradient>
 </defs>
 <g id="Layer_x0020_1">
  <metadata id="CorelCorpID_0Corel-Layer"/>
  <g id="_2431462779360">
   <path class="fil0" d="M217.26 0c119.99,0 217.26,97.27 217.26,217.26 0,119.99 -97.27,217.26 -217.26,217.26 -119.99,0 -217.26,-97.27 -217.26,-217.26 0,-119.99 97.27,-217.26 217.26,-217.26z"/>
   <path class="fil1" d="M242.66 0c119.99,0 217.26,97.27 217.26,217.26 0,119.99 -97.27,217.26 -217.26,217.26 -119.99,0 -217.26,-97.27 -217.26,-217.26 0,-119.99 97.27,-217.26 217.26,-217.26z"/>
   <path class="fil1 str0" d="M242.66 11.59c113.59,0 205.67,92.08 205.67,205.67 0,113.59 -92.08,205.67 -205.67,205.67 -113.59,0 -205.67,-92.08 -205.67,-205.67 0,-113.59 92.08,-205.67 205.67,-205.67z"/>
   <path class="fil2" d="M84.36 217.15c0,88.14 71.71,159.86 159.86,159.86 67.02,0 127.41,-42.31 150.29,-105.28l0.45 -1.24 -8.78 0 -0.23 0.6c-22.25,58.45 -79.21,97.72 -141.73,97.72 -83.62,0 -151.64,-68.03 -151.64,-151.64 0,-83.61 68.03,-151.64 151.64,-151.64 63.58,0 120.88,40.14 142.57,99.89l0.22 0.61 8.66 0 -0.43 -1.23c-22.29,-64.29 -82.98,-107.49 -151.03,-107.49 -88.15,0 -159.86,71.71 -159.86,159.85zm1.85 0c0,-87.12 70.88,-158 158.01,-158 66.82,0 126.48,42.15 148.85,105.02l-4.77 0c-22.12,-60.14 -79.94,-100.5 -144.09,-100.5 -84.64,0 -153.49,68.86 -153.49,153.49 0,84.63 68.86,153.49 153.49,153.49 63.07,0 120.55,-39.48 143.23,-98.31l4.86 0c-22.94,61.56 -82.29,102.83 -148.09,102.83 -87.13,0 -158.01,-70.88 -158.01,-158.01z"/>
   <path class="fil2" d="M103.45 217.15c0,77.61 63.14,140.76 140.75,140.76 62.88,0 118.57,-42.18 135.53,-102.6l2.28 -1.84 -1.16 -1.44 -2.74 2.22 -0.08 0.28c-16.65,59.78 -71.69,101.53 -133.83,101.53 -76.59,0 -138.91,-62.31 -138.91,-138.91 0,-76.59 62.31,-138.9 138.91,-138.9 62.15,0 117.18,41.75 133.83,101.53l0.08 0.3 7.3 5.56 30.13 0 0 -1.85 -29.5 0 -6.31 -4.8c-16.97,-60.42 -72.66,-102.59 -135.53,-102.59 -77.61,0 -140.75,63.14 -140.75,140.75z"/>
   <path class="fil2" d="M97.09 217.15c0,81.13 66,147.13 147.13,147.13 64.17,0 120.43,-40.97 140.07,-101.99l6.24 -4.56 23.51 0 0 -1.85 -24.11 0 -7.22 5.27 -0.09 0.29c-19.31,60.4 -74.93,100.99 -138.4,100.99 -80.11,0 -145.28,-65.17 -145.28,-145.28 0,-80.1 65.17,-145.28 145.28,-145.28 63.47,0 119.09,40.58 138.4,100.99l0.09 0.29 7.22 5.27 24.11 0 0 -1.85 -23.51 0 -6.24 -4.56c-19.65,-61.01 -75.9,-101.99 -140.07,-101.99 -81.13,0 -147.13,66 -147.13,147.13z"/>
   <polygon class="fil2" points="222.6,131.51 224.45,131.51 224.45,86.2 234.55,86.2 234.55,84.35 222.6,84.35 "/>
   <path class="fil2" d="M218.98 131.51l0 -46.4 -1.11 0.22c-58.38,11.58 -102.61,61.12 -107.57,120.46l-0.03 0.41 7.61 8.29 63.07 0 0 -1.85 -62.26 0 -6.52 -7.1c5.03,-57.97 48.06,-106.38 104.95,-118.18l0 44.15 1.85 0z"/>
   <polygon class="fil2" points="245.13,83.68 243.28,83.68 243.28,131.51 245.13,131.51 "/>
   <path class="fil2" d="M375.71 200.06l41.95 0 0 -1.85 -41.28 0 -6.44 -5.31c-10.76,-56.14 -57.89,-98.7 -114.7,-103.55l-1 -0.09 0 42.25 1.85 0 0 -40.23c55.66,5.21 101.68,47.14 112.1,102.29l0.06 0.33 7.47 6.16z"/>
   <path class="fil2" d="M380.68 192.85l36.09 0 0 -1.85 -35.45 0 -6.38 -5.04c-13.87,-58.35 -65.34,-100.72 -125.27,-103.09l-0.96 -0.04 0.04 48.68 1.85 0 -0.04 -46.75c58.79,2.76 109.15,44.55 122.65,101.94l0.07 0.31 7.38 5.84z"/>
   <path class="fil2" d="M218.98 349.19l0 -73.71 -1.85 0 0 71.45c-56.89,-11.81 -99.92,-60.2 -104.95,-118.14l6.52 -7.1 62.26 -0.04 0 -1.85 -63.07 0.04 -7.61 8.29 0.03 0.4c4.97,59.31 49.2,108.84 107.57,120.43l1.11 0.22z"/>
   <polygon class="fil2" points="234.54,89.81 234.54,87.97 223.53,87.97 223.53,89.81 "/>
   <path class="fil2" d="M241.2 88.63l0 -3.35c0,-1.03 -0.83,-1.86 -1.86,-1.86l-10.12 0c-1.03,0 -1.86,0.84 -1.86,1.86l0 3.35c0,1.03 0.83,1.86 1.86,1.86l10.12 0c1.03,0 1.86,-0.83 1.86,-1.86z"/>
   <path class="fil3" d="M103.82 97.77c-0.8,0.93 -1.71,1.7 -2.73,2.31 -1.02,0.61 -2.05,1.01 -3.1,1.2l-0.74 -3.03c1.65,-0.32 3.05,-1.15 4.21,-2.49 0.58,-0.67 0.92,-1.3 1.04,-1.89 0.11,-0.58 -0.02,-1.05 -0.41,-1.38 -0.37,-0.32 -0.81,-0.38 -1.33,-0.19 -0.52,0.19 -1.17,0.64 -1.94,1.37 -1.5,1.39 -2.84,2.21 -4.01,2.45 -1.17,0.24 -2.26,-0.08 -3.29,-0.97 -0.69,-0.59 -1.13,-1.31 -1.32,-2.16 -0.19,-0.84 -0.13,-1.74 0.18,-2.69 0.31,-0.95 0.87,-1.88 1.66,-2.8 0.68,-0.79 1.45,-1.45 2.33,-2.01 0.87,-0.55 1.76,-0.94 2.66,-1.16l0.78 2.85c-1.38,0.35 -2.52,1.06 -3.45,2.13 -0.57,0.66 -0.91,1.28 -1.04,1.85 -0.12,0.58 -0,1.03 0.36,1.34 0.36,0.31 0.78,0.38 1.26,0.2 0.49,-0.17 1.12,-0.61 1.91,-1.33 1.49,-1.38 2.86,-2.19 4.1,-2.44 1.24,-0.25 2.37,0.07 3.39,0.96 0.71,0.61 1.17,1.36 1.36,2.23 0.2,0.87 0.14,1.79 -0.19,2.77 -0.33,0.98 -0.9,1.93 -1.71,2.87zm4.76 -21.17l7.65 7.26 -1.99 2.11 -1.03 -0.68c0.07,0.61 -0.01,1.21 -0.22,1.8 -0.22,0.59 -0.56,1.13 -1.03,1.63 -0.89,0.94 -1.91,1.39 -3.06,1.36 -1.15,-0.03 -2.27,-0.56 -3.36,-1.6l-4.32 -4.1 2.3 -2.43 4.18 3.96c0.5,0.47 1,0.72 1.51,0.74 0.51,0.02 0.96,-0.18 1.36,-0.6 0.44,-0.47 0.63,-0.99 0.58,-1.59 -0.06,-0.59 -0.34,-1.13 -0.86,-1.62l-4.01 -3.8 2.31 -2.43zm7.05 -6.4c0.36,-0.32 0.79,-0.57 1.27,-0.75 0.48,-0.19 0.97,-0.27 1.46,-0.24l0.56 2.77c-0.35,0.06 -0.64,0.14 -0.89,0.24 -0.25,0.1 -0.48,0.25 -0.69,0.44 -0.54,0.47 -0.81,1.01 -0.82,1.62 -0.01,0.62 0.27,1.26 0.85,1.92l3.37 3.86 -2.52 2.21 -6.95 -7.93 2.2 -1.93 1.06 0.83c-0.17,-1.23 0.19,-2.24 1.1,-3.03zm9.51 -7.41l2.82 -2.18 2.93 11.07 -2.7 2.09 -10 -5.59 2.88 -2.24 2.94 1.74 3.37 2.22 -1.31 -3.82 -0.94 -3.3zm7.94 -6.03c0.94,-0.67 1.88,-1.07 2.81,-1.2 0.94,-0.13 1.82,-0.01 2.64,0.38 0.82,0.38 1.54,1 2.15,1.86 0.2,0.28 0.41,0.64 0.65,1.09l-6.31 4.5c0.4,0.38 0.89,0.57 1.48,0.56 0.59,-0.01 1.19,-0.23 1.8,-0.67 0.43,-0.31 0.8,-0.67 1.12,-1.08 0.32,-0.42 0.54,-0.84 0.66,-1.28l2.51 0.51c-0.17,0.8 -0.5,1.56 -0.99,2.27 -0.49,0.72 -1.12,1.35 -1.87,1.88 -1,0.71 -1.99,1.14 -2.98,1.3 -0.99,0.15 -1.92,0.04 -2.79,-0.35 -0.87,-0.39 -1.64,-1.04 -2.29,-1.96 -0.63,-0.88 -0.99,-1.8 -1.09,-2.76 -0.1,-0.96 0.06,-1.88 0.49,-2.75 0.43,-0.87 1.1,-1.63 2.01,-2.29zm1.62 2.09c-0.55,0.39 -0.89,0.84 -1.03,1.37 -0.14,0.52 -0.06,1.05 0.25,1.58l3.79 -2.7c-0.39,-0.48 -0.85,-0.73 -1.38,-0.78 -0.53,-0.04 -1.07,0.13 -1.63,0.53zm11.89 -10.25l3.16 -1.79 1.74 16.39 -3.1 1.76 -0.54 -5.11 -8.69 -7.02 3.14 -1.78 2.7 2.3 2.7 2.42 -0.62 -3.6 -0.47 -3.56zm19.81 1.97c-1.96,0.89 -3.72,1.03 -5.3,0.44 -1.57,-0.6 -2.8,-1.86 -3.68,-3.81l-3.5 -7.74 3.19 -1.44 3.5 7.74c0.47,1.04 1.1,1.73 1.9,2.1 0.79,0.36 1.67,0.32 2.61,-0.1 0.92,-0.42 1.52,-1.04 1.78,-1.88 0.26,-0.84 0.16,-1.78 -0.31,-2.81l-3.5 -7.74 3.19 -1.44 3.5 7.74c0.88,1.95 1.03,3.7 0.44,5.28 -0.59,1.57 -1.86,2.79 -3.82,3.68zm11.03 -16.42c1.24,-0.42 2.36,-0.35 3.37,0.21 1.01,0.56 1.75,1.55 2.24,2.98l1.91 5.64 -3.18 1.08 -1.85 -5.46c-0.22,-0.65 -0.55,-1.1 -1,-1.35 -0.45,-0.26 -0.95,-0.28 -1.52,-0.09 -0.62,0.21 -1.05,0.59 -1.28,1.13 -0.24,0.55 -0.24,1.16 -0.01,1.83l1.78 5.26 -3.17 1.08 -3.38 -9.99 2.75 -0.93 0.6 1.1c0.24,-0.58 0.59,-1.08 1.06,-1.51 0.46,-0.43 1.02,-0.75 1.69,-0.97zm8.19 -3.58c-0.56,0.16 -1.06,0.13 -1.51,-0.1 -0.44,-0.23 -0.74,-0.6 -0.88,-1.1 -0.15,-0.52 -0.09,-1 0.17,-1.43 0.26,-0.43 0.66,-0.73 1.21,-0.88 0.55,-0.16 1.05,-0.12 1.5,0.1 0.45,0.22 0.75,0.6 0.9,1.12 0.15,0.51 0.09,0.97 -0.16,1.4 -0.26,0.43 -0.66,0.72 -1.22,0.89zm-1.33 1.47l3.22 -0.93 2.92 10.14 -3.22 0.93 -2.92 -10.13zm13.61 7.36c-1.14,0.26 -2.19,0.27 -3.14,0.01 -0.96,-0.25 -1.76,-0.73 -2.4,-1.43 -0.64,-0.7 -1.09,-1.58 -1.34,-2.65 -0.25,-1.07 -0.23,-2.06 0.04,-2.97 0.27,-0.91 0.78,-1.69 1.53,-2.34 0.75,-0.65 1.69,-1.1 2.83,-1.36 1.14,-0.26 2.19,-0.27 3.15,-0.02 0.96,0.25 1.77,0.73 2.41,1.43 0.65,0.7 1.09,1.58 1.34,2.65 0.25,1.07 0.24,2.06 -0.04,2.97 -0.27,0.91 -0.78,1.69 -1.54,2.34 -0.76,0.65 -1.7,1.1 -2.84,1.37zm-0.64 -2.77c0.72,-0.17 1.25,-0.54 1.58,-1.13 0.33,-0.59 0.41,-1.26 0.23,-2.03 -0.18,-0.76 -0.54,-1.34 -1.1,-1.72 -0.56,-0.38 -1.19,-0.49 -1.92,-0.32 -0.71,0.16 -1.23,0.54 -1.56,1.13 -0.33,0.59 -0.41,1.26 -0.24,2.03 0.18,0.76 0.54,1.34 1.1,1.72 0.56,0.38 1.19,0.49 1.9,0.33zm12.7 -10.94c1.29,-0.22 2.39,0.02 3.3,0.73 0.91,0.71 1.49,1.81 1.75,3.3l1.01 5.87 -3.3 0.57 -0.98 -5.68c-0.12,-0.67 -0.37,-1.17 -0.78,-1.49 -0.4,-0.32 -0.9,-0.43 -1.49,-0.33 -0.65,0.11 -1.13,0.42 -1.45,0.92 -0.32,0.5 -0.42,1.1 -0.3,1.8l0.94 5.47 -3.3 0.57 -1.79 -10.39 2.86 -0.49 0.42 1.18c0.33,-0.53 0.75,-0.97 1.28,-1.32 0.52,-0.35 1.13,-0.58 1.82,-0.7zm23.39 -6.8l0.23 3.05 -4.56 0.35 0.9 11.85 -3.49 0.27 -0.9 -11.86 -4.53 0.35 -0.23 -3.05 12.58 -0.96zm11.68 4.24l0.2 10.54 -2.9 0.05 -0.24 -1.26c-0.88,1 -2.04,1.51 -3.47,1.54 -0.98,0.02 -1.86,-0.19 -2.63,-0.64 -0.77,-0.45 -1.37,-1.08 -1.82,-1.91 -0.44,-0.82 -0.67,-1.77 -0.69,-2.84 -0.02,-1.07 0.18,-2.02 0.59,-2.86 0.41,-0.84 0.99,-1.5 1.74,-1.98 0.75,-0.48 1.62,-0.73 2.6,-0.74 0.71,-0.01 1.37,0.1 1.97,0.34 0.6,0.24 1.12,0.59 1.56,1.05l0.19 -1.24 2.9 -0.05zm-5.68 8.05c0.74,-0.01 1.34,-0.27 1.8,-0.77 0.46,-0.5 0.69,-1.15 0.67,-1.95 -0.02,-0.8 -0.26,-1.44 -0.74,-1.92 -0.48,-0.48 -1.09,-0.71 -1.83,-0.7 -0.74,0.01 -1.34,0.27 -1.79,0.78 -0.45,0.51 -0.67,1.15 -0.66,1.93 0.02,0.78 0.26,1.42 0.73,1.91 0.47,0.49 1.08,0.73 1.82,0.71zm19.07 3.2l-4.13 -0.31 -2.9 -4.42 -0.32 4.17 -3.32 -0.25 1.13 -14.9 3.32 0.25 -0.63 8.37 3.22 -3.76 3.81 0.29 -4.17 4.69 3.99 5.87zm7.09 -10.1c1.14,0.15 2.1,0.5 2.88,1.04 0.78,0.54 1.33,1.23 1.67,2.08 0.34,0.84 0.44,1.78 0.3,2.83 -0.04,0.34 -0.13,0.75 -0.27,1.23l-7.68 -1.02c0.03,0.55 0.26,1.02 0.69,1.42 0.43,0.4 1.03,0.64 1.77,0.74 0.52,0.07 1.04,0.06 1.56,-0.03 0.52,-0.09 0.97,-0.25 1.36,-0.48l1.49 2.09c-0.67,0.47 -1.42,0.8 -2.27,0.99 -0.85,0.19 -1.73,0.22 -2.65,0.1 -1.21,-0.16 -2.23,-0.52 -3.06,-1.09 -0.83,-0.56 -1.43,-1.28 -1.8,-2.17 -0.37,-0.88 -0.48,-1.88 -0.33,-3 0.14,-1.07 0.51,-1.99 1.09,-2.76 0.58,-0.77 1.33,-1.33 2.24,-1.67 0.91,-0.35 1.92,-0.44 3.03,-0.29zm-0.24 2.64c-0.66,-0.09 -1.23,0.01 -1.69,0.29 -0.46,0.28 -0.76,0.72 -0.9,1.32l4.61 0.61c0.04,-0.61 -0.12,-1.11 -0.48,-1.51 -0.36,-0.39 -0.88,-0.63 -1.55,-0.72zm20.01 0.72c0.96,0.22 1.76,0.64 2.4,1.26 0.65,0.62 1.08,1.39 1.32,2.3 0.23,0.91 0.23,1.88 -0.01,2.92 -0.24,1.04 -0.66,1.92 -1.26,2.64 -0.6,0.71 -1.33,1.21 -2.18,1.49 -0.85,0.28 -1.76,0.31 -2.71,0.09 -1.4,-0.32 -2.43,-1.06 -3.08,-2.22l-0.49 1.18 -2.83 -0.65 3.33 -14.57 3.27 0.75 -1.2 5.27c1.04,-0.6 2.19,-0.75 3.46,-0.46zm-2.59 7.78c0.72,0.17 1.37,0.06 1.93,-0.31 0.57,-0.37 0.94,-0.95 1.12,-1.73 0.18,-0.78 0.09,-1.46 -0.26,-2.04 -0.35,-0.58 -0.88,-0.95 -1.61,-1.12 -0.72,-0.17 -1.36,-0.06 -1.93,0.32 -0.56,0.38 -0.93,0.95 -1.1,1.72 -0.17,0.76 -0.09,1.44 0.25,2.03 0.34,0.59 0.87,0.96 1.59,1.13zm20.57 -2.61l-3.01 10.11 -2.78 -0.83 0.15 -1.27c-1.14,0.69 -2.4,0.82 -3.77,0.41 -0.94,-0.28 -1.71,-0.75 -2.31,-1.41 -0.6,-0.66 -0.98,-1.45 -1.15,-2.37 -0.17,-0.92 -0.11,-1.89 0.2,-2.92 0.3,-1.02 0.78,-1.87 1.43,-2.55 0.65,-0.68 1.4,-1.13 2.26,-1.35 0.86,-0.22 1.76,-0.2 2.71,0.08 0.68,0.2 1.27,0.51 1.77,0.92 0.5,0.41 0.89,0.9 1.17,1.47l0.56 -1.13 2.78 0.83zm-7.85 5.95c0.71,0.21 1.36,0.15 1.95,-0.19 0.59,-0.34 1,-0.89 1.23,-1.65 0.23,-0.76 0.19,-1.45 -0.13,-2.06 -0.31,-0.6 -0.82,-1.01 -1.53,-1.22 -0.71,-0.21 -1.36,-0.15 -1.94,0.2 -0.59,0.35 -0.99,0.89 -1.21,1.64 -0.22,0.75 -0.19,1.43 0.12,2.04 0.3,0.61 0.8,1.02 1.52,1.23zm12.05 7c-1.1,-0.43 -1.98,-1.01 -2.63,-1.74 -0.65,-0.73 -1.06,-1.57 -1.2,-2.51 -0.15,-0.94 -0.02,-1.93 0.38,-2.97 0.39,-1.02 0.97,-1.83 1.72,-2.44 0.75,-0.6 1.62,-0.96 2.59,-1.08 0.98,-0.12 2,0.03 3.06,0.44 0.73,0.28 1.38,0.68 1.94,1.2 0.56,0.51 1,1.13 1.33,1.83l-2.47 1.22c-0.36,-0.73 -0.91,-1.25 -1.67,-1.54 -0.71,-0.28 -1.39,-0.28 -2.02,0.01 -0.63,0.28 -1.09,0.8 -1.37,1.54 -0.29,0.74 -0.3,1.43 -0.03,2.06 0.27,0.63 0.77,1.09 1.49,1.37 0.81,0.31 1.61,0.3 2.4,-0.05l1.05 2.56c-1.52,0.66 -3.05,0.7 -4.57,0.11zm15.27 6.27l-3.77 -1.72 -1.19 -5.15 -1.74 3.81 -3.03 -1.39 6.21 -13.59 3.03 1.38 -3.49 7.63 4.32 -2.42 3.48 1.59 -5.53 2.96 1.71 6.89zm10.17 5.86c-1.06,-0.61 -1.99,-1.35 -2.79,-2.24 -0.8,-0.88 -1.39,-1.82 -1.77,-2.81l2.84 -1.3c0.63,1.56 1.71,2.78 3.25,3.65 0.77,0.44 1.45,0.66 2.05,0.66 0.6,-0 1.02,-0.22 1.28,-0.67 0.24,-0.42 0.22,-0.87 -0.07,-1.34 -0.29,-0.47 -0.86,-1.02 -1.71,-1.65 -1.65,-1.21 -2.71,-2.36 -3.17,-3.46 -0.46,-1.1 -0.35,-2.23 0.32,-3.41 0.45,-0.79 1.07,-1.36 1.86,-1.71 0.79,-0.35 1.68,-0.46 2.68,-0.34 0.99,0.13 2.02,0.49 3.06,1.09 0.9,0.52 1.71,1.15 2.42,1.9 0.71,0.75 1.26,1.55 1.64,2.39l-2.65 1.31c-0.61,-1.28 -1.53,-2.27 -2.75,-2.97 -0.75,-0.43 -1.43,-0.65 -2.02,-0.66 -0.59,-0.01 -1.01,0.19 -1.25,0.61 -0.23,0.41 -0.22,0.84 0.04,1.28 0.26,0.45 0.82,0.99 1.67,1.62 1.64,1.2 2.7,2.39 3.18,3.55 0.48,1.17 0.38,2.34 -0.29,3.51 -0.47,0.81 -1.11,1.4 -1.92,1.77 -0.81,0.36 -1.73,0.48 -2.75,0.34 -1.02,-0.13 -2.07,-0.51 -3.14,-1.12zm18.68 -1.34l3.06 1.94 -13.65 9.24 -3.01 -1.91 4.26 -2.89 2.1 -10.97 3.05 1.93 -0.76 3.47 -0.87 3.52 2.89 -2.24 2.92 -2.09zm1.27 14.25c-1.46,-1.16 -2.43,-2.54 -2.93,-4.14l2.44 -1c0.21,0.56 0.52,1.12 0.94,1.68 0.42,0.56 0.9,1.04 1.42,1.46 0.72,0.58 1.24,0.67 1.55,0.28 0.16,-0.2 0.18,-0.43 0.06,-0.69 -0.12,-0.26 -0.4,-0.59 -0.84,-1 -1,-0.89 -1.62,-1.81 -1.87,-2.77 -0.24,-0.96 -0.06,-1.82 0.54,-2.58 0.66,-0.82 1.51,-1.21 2.56,-1.16 1.05,0.05 2.15,0.52 3.28,1.43 0.65,0.51 1.2,1.08 1.66,1.7 0.46,0.62 0.79,1.24 0.99,1.86l-2.41 0.94c-0.34,-0.85 -0.94,-1.62 -1.8,-2.3 -0.85,-0.67 -1.43,-0.81 -1.75,-0.41 -0.13,0.17 -0.15,0.36 -0.05,0.59 0.1,0.23 0.34,0.53 0.72,0.9 1.11,1.03 1.8,2.01 2.06,2.95 0.26,0.94 0.08,1.81 -0.56,2.61 -0.67,0.84 -1.54,1.24 -2.61,1.18 -1.07,-0.06 -2.2,-0.56 -3.4,-1.52zm11.44 8.55c-0.89,-0.23 -1.73,-0.68 -2.52,-1.36 -0.87,-0.75 -1.35,-1.59 -1.43,-2.52 -0.08,-0.93 0.35,-1.93 1.29,-3.02l2.61 -3.02 -1.36 -1.17 1.74 -2.02 1.36 1.17 1.72 -1.99 2.76 1.9 -1.96 2.26 1.99 1.72 -1.74 2.02 -1.99 -1.72 -2.61 3.02c-0.28,0.32 -0.41,0.63 -0.38,0.93 0.03,0.29 0.18,0.56 0.46,0.8 0.31,0.27 0.69,0.46 1.12,0.57l-1.05 2.43zm11.96 -3.13c0.84,0.79 1.41,1.64 1.72,2.53 0.31,0.89 0.36,1.78 0.14,2.66 -0.22,0.88 -0.69,1.7 -1.41,2.47 -0.24,0.25 -0.55,0.53 -0.94,0.84l-5.62 -5.33c-0.3,0.46 -0.39,0.98 -0.27,1.56 0.12,0.58 0.45,1.13 1,1.64 0.38,0.36 0.81,0.66 1.28,0.89 0.47,0.23 0.93,0.36 1.39,0.4l-0.02 2.57c-0.82,-0.01 -1.62,-0.19 -2.42,-0.53 -0.8,-0.35 -1.53,-0.84 -2.21,-1.47 -0.89,-0.84 -1.5,-1.73 -1.84,-2.68 -0.34,-0.94 -0.41,-1.88 -0.19,-2.81 0.22,-0.93 0.71,-1.81 1.49,-2.62 0.75,-0.79 1.58,-1.32 2.5,-1.6 0.92,-0.28 1.85,-0.3 2.79,-0.04 0.94,0.25 1.81,0.77 2.63,1.54zm-1.74 1.99c-0.49,-0.46 -1,-0.71 -1.54,-0.75 -0.54,-0.04 -1.04,0.14 -1.5,0.54l3.38 3.2c0.39,-0.48 0.56,-0.97 0.5,-1.5 -0.06,-0.53 -0.34,-1.03 -0.83,-1.49zm16.46 13.5c0.87,1.01 1.27,2.07 1.17,3.16 -0.09,1.09 -0.65,2.08 -1.69,2.98l-4.83 4.17 -2.19 -2.54 4.51 -3.89c0.48,-0.41 0.75,-0.84 0.82,-1.29 0.07,-0.45 -0.06,-0.87 -0.41,-1.27 -0.38,-0.44 -0.83,-0.66 -1.36,-0.66 -0.53,0 -1.04,0.22 -1.53,0.64l-4.37 3.76 -2.17 -2.52 4.51 -3.89c0.48,-0.41 0.75,-0.83 0.83,-1.28 0.08,-0.44 -0.06,-0.87 -0.4,-1.26 -0.38,-0.44 -0.84,-0.67 -1.36,-0.67 -0.53,-0 -1.04,0.21 -1.54,0.64l-4.37 3.76 -2.19 -2.54 7.99 -6.89 1.89 2.2 -0.76 0.91c0.59,-0.02 1.14,0.09 1.67,0.32 0.52,0.24 0.98,0.58 1.37,1.03 0.45,0.52 0.74,1.08 0.87,1.68 0.13,0.6 0.11,1.19 -0.08,1.76 1.39,-0.07 2.59,0.49 3.61,1.68z"/>
   <path class="fil2 str1" d="M69.25 217.15c0,96.48 78.49,174.97 174.97,174.97 96.48,0 174.96,-78.49 174.96,-174.97 0,-96.48 -78.49,-174.96 -174.96,-174.96 -96.48,0 -174.97,78.49 -174.97,174.96zm1.85 0c0,-95.46 77.66,-173.12 173.12,-173.12 95.46,0 173.11,77.66 173.11,173.12 0,95.46 -77.66,173.12 -173.11,173.12 -95.46,0 -173.12,-77.66 -173.12,-173.12z"/>
   <path class="fil3" d="M63.72 225.87c0.02,1.15 -0.17,2.16 -0.58,3.03 -0.42,0.87 -1.02,1.55 -1.82,2.04 -0.8,0.49 -1.74,0.74 -2.82,0.77 -1.08,0.02 -2.03,-0.19 -2.85,-0.64 -0.82,-0.45 -1.46,-1.1 -1.91,-1.95 -0.45,-0.85 -0.69,-1.85 -0.72,-3.01l-0.08 -3.65 -4.23 0.09 -0.08 -3.5 14.94 -0.33 0.16 7.15zm-7.67 -0c0.02,0.74 0.24,1.32 0.66,1.75 0.42,0.43 0.98,0.63 1.68,0.62 0.7,-0.02 1.25,-0.25 1.65,-0.69 0.4,-0.44 0.6,-1.03 0.58,-1.77l-0.08 -3.5 -4.57 0.1 0.08 3.5zm-6.56 12.64c-0.15,-1.16 -0.05,-2.2 0.29,-3.13 0.35,-0.93 0.9,-1.68 1.66,-2.25 0.76,-0.57 1.68,-0.93 2.77,-1.07 1.09,-0.14 2.07,-0.03 2.95,0.33 0.88,0.36 1.6,0.94 2.18,1.75 0.57,0.81 0.93,1.79 1.08,2.95 0.15,1.15 0.05,2.2 -0.29,3.14 -0.35,0.93 -0.9,1.69 -1.65,2.26 -0.76,0.57 -1.68,0.93 -2.77,1.07 -1.09,0.14 -2.07,0.03 -2.95,-0.33 -0.88,-0.36 -1.61,-0.95 -2.18,-1.76 -0.57,-0.82 -0.93,-1.8 -1.08,-2.96zm2.82 -0.37c0.1,0.73 0.42,1.29 0.97,1.68 0.55,0.39 1.22,0.53 1.99,0.43 0.78,-0.1 1.38,-0.41 1.82,-0.92 0.43,-0.52 0.61,-1.14 0.51,-1.87 -0.09,-0.72 -0.41,-1.28 -0.97,-1.66 -0.55,-0.39 -1.22,-0.53 -1.99,-0.43 -0.78,0.1 -1.38,0.41 -1.82,0.93 -0.43,0.52 -0.61,1.13 -0.51,1.85zm13.11 5.43l0.58 3.3 -14.72 2.58 -0.58 -3.3 14.72 -2.58zm-2.02 13.19l0.82 3.54 -16.21 -3.01 -0.8 -3.47 5.06 0.93 9.21 -6.33 0.81 3.52 -2.97 1.94 -3.09 1.9 3.63 0.43 3.55 0.56zm-5.27 14.83c-0.12,0.77 -0.4,1.43 -0.85,1.96 -0.45,0.54 -1.03,0.91 -1.76,1.11 -0.85,0.24 -1.66,0.22 -2.45,-0.06 -0.78,-0.28 -1.47,-0.79 -2.06,-1.54 -0.59,-0.75 -1.05,-1.69 -1.37,-2.81 -0.31,-1.09 -0.41,-2.1 -0.29,-3.02 0.12,-0.92 0.45,-1.7 0.97,-2.34 0.53,-0.63 1.23,-1.07 2.09,-1.32 0.22,-0.06 0.38,-0.1 0.5,-0.12l0.89 3.1c-0.68,0.16 -1.15,0.5 -1.4,1.01 -0.25,0.51 -0.27,1.15 -0.05,1.91 0.2,0.68 0.51,1.19 0.94,1.53 0.43,0.33 0.9,0.43 1.4,0.29 0.52,-0.15 0.86,-0.46 1.03,-0.93 0.17,-0.47 0.15,-1.07 -0.06,-1.79 -0.32,-1.12 -0.39,-2.16 -0.21,-3.13 0.18,-0.96 0.6,-1.78 1.24,-2.47 0.64,-0.68 1.48,-1.17 2.5,-1.46 0.98,-0.28 1.93,-0.3 2.84,-0.04 0.91,0.25 1.7,0.74 2.37,1.45 0.67,0.72 1.16,1.62 1.47,2.7 0.24,0.83 0.29,1.65 0.17,2.44l1.82 0.77 -1.03 2.85 -1.97 -0.9c-0.58,0.91 -1.42,1.52 -2.5,1.82 -0.75,0.22 -1.5,0.23 -2.24,0.05 -0.74,-0.18 -1.41,-0.54 -2,-1.08zm0.26 -3.81c0.2,0.71 0.58,1.22 1.15,1.54 0.56,0.31 1.21,0.37 1.93,0.16 0.73,-0.21 1.24,-0.59 1.55,-1.14 0.31,-0.55 0.36,-1.19 0.15,-1.92 -0.21,-0.71 -0.58,-1.23 -1.14,-1.54 -0.56,-0.31 -1.2,-0.37 -1.92,-0.16 -0.71,0.2 -1.23,0.59 -1.55,1.15 -0.32,0.57 -0.38,1.2 -0.17,1.92zm0.76 13.42c-0.37,-1.11 -0.48,-2.15 -0.32,-3.12 0.16,-0.98 0.56,-1.82 1.19,-2.53 0.63,-0.71 1.47,-1.24 2.51,-1.59 1.04,-0.35 2.02,-0.43 2.96,-0.25 0.93,0.18 1.76,0.61 2.48,1.3 0.71,0.68 1.26,1.58 1.63,2.68 0.37,1.1 0.48,2.15 0.32,3.13 -0.16,0.98 -0.55,1.83 -1.18,2.54 -0.63,0.71 -1.47,1.24 -2.51,1.59 -1.04,0.35 -2.03,0.44 -2.96,0.25 -0.93,-0.18 -1.76,-0.62 -2.48,-1.31 -0.72,-0.69 -1.27,-1.58 -1.64,-2.69zm2.69 -0.91c0.24,0.7 0.66,1.19 1.28,1.46 0.62,0.27 1.3,0.28 2.04,0.03 0.74,-0.25 1.28,-0.67 1.6,-1.26 0.32,-0.59 0.37,-1.23 0.13,-1.94 -0.23,-0.69 -0.66,-1.17 -1.27,-1.44 -0.62,-0.27 -1.3,-0.28 -2.04,-0.04 -0.74,0.25 -1.28,0.67 -1.6,1.26 -0.33,0.59 -0.37,1.23 -0.14,1.92zm12.5 9.66c0.54,1.19 0.58,2.32 0.12,3.38 -0.46,1.06 -1.38,1.9 -2.75,2.52l-5.43 2.45 -1.38 -3.05 5.25 -2.37c0.62,-0.28 1.04,-0.66 1.25,-1.13 0.21,-0.47 0.19,-0.98 -0.06,-1.52 -0.27,-0.6 -0.69,-0.99 -1.25,-1.17 -0.57,-0.18 -1.17,-0.13 -1.82,0.17l-5.06 2.29 -1.38 -3.05 9.61 -4.34 1.19 2.64 -1.04 0.71c0.6,0.18 1.13,0.48 1.6,0.9 0.47,0.42 0.85,0.95 1.14,1.58zm13.04 16.56l1.73 3.02 -12.98 7.41 -1.56 -2.73 4.67 -10.46 -3.48 2.04 -4.52 2.58 -1.73 -3.02 12.98 -7.41 1.56 2.73 -4.71 10.48 3.44 -2.02 4.6 -2.63zm1.94 11.11c0.62,0.97 0.98,1.93 1.07,2.86 0.09,0.94 -0.08,1.81 -0.5,2.62 -0.42,0.8 -1.07,1.49 -1.96,2.06 -0.29,0.18 -0.66,0.38 -1.12,0.59l-4.2 -6.52c-0.4,0.38 -0.61,0.86 -0.63,1.45 -0.02,0.59 0.17,1.2 0.58,1.83 0.28,0.44 0.63,0.83 1.03,1.17 0.4,0.34 0.82,0.57 1.25,0.72l-0.63 2.49c-0.79,-0.2 -1.53,-0.57 -2.23,-1.09 -0.69,-0.53 -1.29,-1.18 -1.79,-1.96 -0.66,-1.03 -1.05,-2.04 -1.16,-3.04 -0.11,-1 0.05,-1.92 0.49,-2.77 0.43,-0.86 1.12,-1.59 2.07,-2.19 0.91,-0.58 1.85,-0.9 2.81,-0.96 0.97,-0.05 1.87,0.15 2.72,0.62 0.85,0.47 1.58,1.17 2.19,2.12zm-2.17 1.52c-0.36,-0.56 -0.8,-0.93 -1.32,-1.1 -0.51,-0.17 -1.05,-0.11 -1.59,0.17l2.52 3.91c0.49,-0.37 0.77,-0.81 0.84,-1.34 0.07,-0.53 -0.08,-1.08 -0.45,-1.65zm2.03 16.38c-0.82,-0.43 -1.52,-1.07 -2.13,-1.92 -0.67,-0.94 -0.93,-1.87 -0.79,-2.79 0.14,-0.92 0.8,-1.8 1.97,-2.63l3.25 -2.32 -1.04 -1.46 2.17 -1.55 1.04 1.46 2.14 -1.52 2.23 2.5 -2.44 1.73 1.52 2.14 -2.17 1.55 -1.52 -2.14 -3.25 2.31c-0.35,0.25 -0.54,0.52 -0.59,0.81 -0.04,0.29 0.04,0.59 0.25,0.89 0.24,0.34 0.56,0.61 0.95,0.82l-1.59 2.1zm17.59 5.08l2.33 2.67 -10.27 4.27 -2.09 -2.4 1.38 -2.36 1.76 -3.15 -3.36 1.31 -2.53 1.04 -2.1 -2.41 5.64 -9.58 2.33 2.67 -1.83 2.84 -1.91 2.74 6.48 -2.44 1.46 1.67 -3.33 6.09 3 -1.54 3.05 -1.44zm-1.49 14.08c-0.85,-0.8 -1.43,-1.68 -1.74,-2.61 -0.32,-0.94 -0.36,-1.87 -0.13,-2.79 0.23,-0.92 0.72,-1.78 1.47,-2.58 0.76,-0.8 1.59,-1.33 2.5,-1.6 0.91,-0.28 1.84,-0.28 2.79,-0.01 0.95,0.27 1.85,0.8 2.7,1.61 0.84,0.8 1.43,1.67 1.75,2.62 0.32,0.94 0.37,1.88 0.14,2.8 -0.23,0.92 -0.72,1.78 -1.47,2.58 -0.76,0.79 -1.59,1.33 -2.5,1.6 -0.91,0.27 -1.84,0.28 -2.8,0 -0.96,-0.27 -1.86,-0.81 -2.71,-1.61zm1.96 -2.06c0.54,0.51 1.14,0.74 1.81,0.69 0.67,-0.05 1.28,-0.35 1.82,-0.92 0.54,-0.57 0.82,-1.19 0.83,-1.86 0.01,-0.67 -0.25,-1.27 -0.79,-1.78 -0.53,-0.5 -1.13,-0.73 -1.8,-0.68 -0.67,0.05 -1.28,0.35 -1.82,0.92 -0.54,0.57 -0.82,1.19 -0.83,1.86 -0.01,0.67 0.24,1.26 0.77,1.76zm15.35 3.04c0.36,0.32 0.67,0.7 0.92,1.15 0.25,0.45 0.4,0.92 0.44,1.41l-2.67 0.93c-0.11,-0.34 -0.23,-0.62 -0.37,-0.85 -0.14,-0.23 -0.31,-0.44 -0.53,-0.63 -0.54,-0.46 -1.11,-0.66 -1.72,-0.58 -0.61,0.07 -1.2,0.44 -1.78,1.11l-3.35 3.88 -2.53 -2.19 6.9 -7.97 2.21 1.91 -0.67 1.17c1.19,-0.34 2.25,-0.12 3.15,0.67zm4.21 17.34l-3.25 -2.57 0.07 -5.28 -2.6 3.28 -2.61 -2.07 9.27 -11.72 2.61 2.07 -5.21 6.58 4.77 -1.32 3 2.37 -6.08 1.56 0.02 7.1zm43.57 8.16c1.05,0.48 1.88,1.09 2.48,1.84 0.6,0.75 0.95,1.59 1.04,2.53 0.09,0.93 -0.09,1.89 -0.53,2.88 -0.45,0.99 -1.05,1.75 -1.82,2.3 -0.76,0.54 -1.62,0.84 -2.59,0.88 -0.97,0.04 -1.97,-0.18 -3.02,-0.66l-3.33 -1.51 -1.75 3.85 -3.19 -1.45 6.18 -13.61 6.51 2.96zm-3.33 6.91c0.67,0.31 1.29,0.36 1.86,0.17 0.56,-0.19 0.99,-0.61 1.28,-1.25 0.29,-0.63 0.32,-1.23 0.1,-1.79 -0.22,-0.55 -0.67,-0.98 -1.35,-1.29l-3.19 -1.45 -1.89 4.16 3.19 1.45zm8.46 11.56c-1.09,-0.42 -1.95,-1.01 -2.6,-1.76 -0.65,-0.75 -1.04,-1.6 -1.17,-2.53 -0.14,-0.94 -0.01,-1.92 0.39,-2.94 0.4,-1.02 0.97,-1.83 1.71,-2.43 0.74,-0.6 1.6,-0.95 2.58,-1.06 0.98,-0.11 2.02,0.04 3.11,0.47 1.08,0.43 1.95,1.01 2.61,1.76 0.65,0.76 1.05,1.6 1.19,2.54 0.14,0.94 0,1.92 -0.39,2.94 -0.4,1.02 -0.97,1.83 -1.7,2.43 -0.74,0.6 -1.6,0.95 -2.59,1.06 -0.99,0.11 -2.03,-0.05 -3.12,-0.47zm1.04 -2.64c0.69,0.27 1.33,0.26 1.94,-0.04 0.61,-0.3 1.05,-0.81 1.33,-1.54 0.28,-0.73 0.31,-1.41 0.06,-2.04 -0.24,-0.63 -0.71,-1.08 -1.4,-1.35 -0.67,-0.26 -1.32,-0.25 -1.92,0.05 -0.6,0.3 -1.05,0.81 -1.34,1.54 -0.28,0.73 -0.3,1.41 -0.06,2.04 0.24,0.63 0.7,1.08 1.38,1.34zm11.1 -9.29l3.18 1.06 -4.73 14.18 -3.18 -1.06 4.73 -14.18zm10.89 7.84l3.48 1.02 -10.55 12.66 -3.42 -1 3.29 -3.95 -1.02 -11.13 3.47 1.01 0.23 3.54 0.14 3.62 2.15 -2.95 2.23 -2.82zm10.44 11.06c0.64,0.45 1.11,0.99 1.4,1.62 0.29,0.63 0.36,1.32 0.23,2.07 -0.15,0.87 -0.52,1.59 -1.12,2.18 -0.59,0.58 -1.36,0.97 -2.29,1.18 -0.93,0.2 -1.97,0.21 -3.12,0 -1.12,-0.19 -2.07,-0.55 -2.85,-1.06 -0.78,-0.51 -1.34,-1.15 -1.67,-1.9 -0.34,-0.75 -0.43,-1.57 -0.27,-2.45 0.04,-0.22 0.07,-0.39 0.11,-0.5l3.18 0.56c-0.15,0.68 -0.05,1.25 0.3,1.7 0.35,0.45 0.91,0.75 1.7,0.88 0.7,0.12 1.3,0.06 1.79,-0.17 0.49,-0.24 0.78,-0.62 0.87,-1.14 0.09,-0.53 -0.04,-0.98 -0.39,-1.34 -0.35,-0.36 -0.89,-0.6 -1.64,-0.73 -1.15,-0.2 -2.12,-0.59 -2.9,-1.18 -0.78,-0.58 -1.34,-1.32 -1.68,-2.19 -0.33,-0.87 -0.4,-1.84 -0.22,-2.89 0.18,-1.01 0.58,-1.87 1.2,-2.58 0.62,-0.71 1.4,-1.21 2.34,-1.5 0.94,-0.29 1.96,-0.34 3.07,-0.14 0.86,0.15 1.61,0.45 2.27,0.92l1.49 -1.3 2.11 2.17 -1.67 1.38c0.56,0.92 0.74,1.93 0.55,3.04 -0.13,0.77 -0.45,1.45 -0.93,2.04 -0.48,0.58 -1.1,1.03 -1.85,1.33zm-3.31 -1.9c0.73,0.13 1.36,0.01 1.88,-0.36 0.53,-0.37 0.85,-0.93 0.98,-1.67 0.13,-0.74 0.01,-1.37 -0.35,-1.89 -0.37,-0.52 -0.92,-0.84 -1.66,-0.97 -0.73,-0.13 -1.36,-0.01 -1.88,0.35 -0.53,0.36 -0.85,0.92 -0.98,1.66 -0.13,0.73 -0.01,1.36 0.36,1.89 0.37,0.53 0.92,0.87 1.65,0.99zm12.39 5.26c-1.16,-0.15 -2.14,-0.51 -2.95,-1.08 -0.81,-0.57 -1.39,-1.3 -1.75,-2.17 -0.36,-0.88 -0.47,-1.86 -0.33,-2.95 0.14,-1.09 0.5,-2.01 1.07,-2.77 0.57,-0.76 1.32,-1.31 2.25,-1.66 0.93,-0.35 1.97,-0.44 3.13,-0.29 1.16,0.15 2.14,0.51 2.96,1.08 0.82,0.58 1.4,1.3 1.76,2.18 0.36,0.88 0.47,1.86 0.33,2.95 -0.14,1.09 -0.5,2.01 -1.07,2.77 -0.57,0.76 -1.33,1.31 -2.26,1.66 -0.93,0.35 -1.98,0.44 -3.14,0.29zm0.37 -2.82c0.73,0.09 1.36,-0.07 1.87,-0.51 0.52,-0.44 0.82,-1.04 0.92,-1.82 0.1,-0.78 -0.04,-1.44 -0.43,-1.99 -0.39,-0.55 -0.95,-0.88 -1.68,-0.97 -0.72,-0.09 -1.34,0.08 -1.85,0.51 -0.52,0.43 -0.82,1.04 -0.93,1.82 -0.1,0.78 0.04,1.44 0.43,2 0.39,0.55 0.94,0.87 1.66,0.97zm14.65 -6.84c1.31,0.1 2.31,0.6 3.02,1.51 0.71,0.91 1.01,2.12 0.89,3.62l-0.45 5.94 -3.34 -0.26 0.44 -5.75c0.05,-0.68 -0.08,-1.23 -0.39,-1.64 -0.31,-0.41 -0.76,-0.63 -1.36,-0.68 -0.65,-0.05 -1.19,0.13 -1.63,0.54 -0.43,0.41 -0.67,0.97 -0.73,1.68l-0.42 5.54 -3.34 -0.25 0.8 -10.52 2.89 0.22 0.12 1.25c0.45,-0.44 0.97,-0.76 1.56,-0.97 0.59,-0.21 1.24,-0.29 1.93,-0.24zm20.75 -4.2l3.48 -0.08 0.33 14.94 -3.14 0.07 -6.97 -9.09 0.13 4.03 0.11 5.21 -3.48 0.08 -0.33 -14.94 3.14 -0.07 6.97 9.14 -0.13 -3.99 -0.12 -5.3zm10.08 3.17c1.14,-0.15 2.16,-0.06 3.05,0.26 0.89,0.32 1.61,0.85 2.15,1.57 0.55,0.72 0.89,1.61 1.02,2.65 0.04,0.34 0.06,0.76 0.06,1.26l-7.69 1c0.17,0.52 0.52,0.92 1.04,1.19 0.52,0.27 1.16,0.36 1.91,0.26 0.52,-0.07 1.02,-0.21 1.49,-0.43 0.48,-0.22 0.87,-0.49 1.19,-0.82l1.98 1.64c-0.52,0.63 -1.17,1.14 -1.94,1.54 -0.77,0.4 -1.62,0.66 -2.53,0.78 -1.21,0.16 -2.29,0.07 -3.24,-0.26 -0.95,-0.33 -1.71,-0.87 -2.3,-1.63 -0.59,-0.76 -0.95,-1.69 -1.1,-2.81 -0.14,-1.07 -0.02,-2.06 0.34,-2.95 0.37,-0.89 0.94,-1.62 1.73,-2.2 0.79,-0.57 1.74,-0.92 2.85,-1.07zm0.45 2.61c-0.67,0.09 -1.18,0.33 -1.55,0.72 -0.37,0.39 -0.55,0.9 -0.52,1.51l4.61 -0.6c-0.12,-0.6 -0.41,-1.04 -0.85,-1.33 -0.45,-0.29 -1.01,-0.39 -1.68,-0.3zm15.7 5.4c-0.74,0.55 -1.62,0.91 -2.65,1.09 -1.13,0.2 -2.09,0.04 -2.86,-0.48 -0.77,-0.52 -1.28,-1.49 -1.53,-2.91l-0.69 -3.93 -1.77 0.31 -0.46 -2.63 1.77 -0.31 -0.45 -2.59 3.22 -0.93 0.52 2.95 2.59 -0.45 0.46 2.63 -2.59 0.45 0.69 3.93c0.07,0.42 0.24,0.71 0.48,0.88 0.25,0.17 0.55,0.22 0.91,0.15 0.41,-0.07 0.79,-0.24 1.15,-0.5l1.21 2.35zm11.69 -13.02l3.45 -0.8 -1.06 11.07 -3.1 0.71 -1.43 -2.32 -1.95 -3.03 -0.42 3.58 -0.27 2.71 -3.12 0.72 -5.81 -9.48 3.45 -0.8 1.65 2.95 1.52 2.98 0.89 -6.87 2.16 -0.5 3.82 5.8 0.05 -3.37 0.16 -3.37zm11.63 7.56c-1.11,0.37 -2.15,0.48 -3.12,0.32 -0.98,-0.16 -1.82,-0.56 -2.53,-1.19 -0.71,-0.63 -1.24,-1.47 -1.59,-2.51 -0.35,-1.04 -0.43,-2.02 -0.25,-2.96 0.18,-0.93 0.61,-1.76 1.3,-2.48 0.68,-0.71 1.58,-1.26 2.68,-1.63 1.1,-0.37 2.15,-0.48 3.13,-0.32 0.98,0.16 1.83,0.55 2.54,1.18 0.71,0.63 1.24,1.47 1.59,2.51 0.35,1.04 0.44,2.03 0.25,2.96 -0.18,0.93 -0.62,1.76 -1.31,2.48 -0.69,0.72 -1.58,1.27 -2.69,1.64zm-0.91 -2.69c0.7,-0.24 1.19,-0.66 1.46,-1.28 0.27,-0.62 0.28,-1.3 0.03,-2.04 -0.25,-0.74 -0.67,-1.28 -1.26,-1.6 -0.59,-0.32 -1.23,-0.37 -1.94,-0.13 -0.69,0.23 -1.17,0.66 -1.44,1.27 -0.27,0.62 -0.28,1.3 -0.04,2.04 0.25,0.74 0.67,1.28 1.26,1.6 0.59,0.33 1.23,0.37 1.92,0.14zm9.77 -12.28c0.45,-0.18 0.93,-0.27 1.45,-0.28 0.52,-0.01 1,0.08 1.46,0.26l-0.41 2.8c-0.35,-0.06 -0.65,-0.09 -0.92,-0.07 -0.27,0.02 -0.54,0.07 -0.8,0.18 -0.66,0.26 -1.1,0.68 -1.32,1.25 -0.22,0.57 -0.17,1.27 0.15,2.09l1.87 4.77 -3.12 1.22 -3.86 -9.81 2.72 -1.07 0.72 1.14c0.26,-1.22 0.94,-2.04 2.05,-2.48zm17.24 4.15l-3.77 1.71 -4.66 -2.49 1.72 3.81 -3.03 1.37 -6.15 -13.62 3.03 -1.37 3.46 7.65 1.02 -4.84 3.48 -1.58 -1.41 6.12 6.32 3.24zm27 -35.42c0.91,-0.71 1.83,-1.16 2.78,-1.35 0.94,-0.19 1.85,-0.11 2.72,0.24 0.87,0.35 1.64,0.95 2.31,1.8 0.67,0.85 1.07,1.74 1.2,2.67 0.13,0.93 -0.01,1.83 -0.42,2.7 -0.41,0.87 -1.07,1.67 -1.97,2.38l-2.87 2.25 2.61 3.33 -2.75 2.16 -9.23 -11.76 5.63 -4.42zm4.6 6.13c0.58,-0.46 0.92,-0.98 1,-1.57 0.09,-0.59 -0.08,-1.17 -0.51,-1.71 -0.43,-0.55 -0.95,-0.85 -1.54,-0.91 -0.59,-0.06 -1.18,0.14 -1.77,0.6l-2.75 2.16 2.82 3.59 2.75 -2.16zm14.03 -2.36c-0.85,0.8 -1.75,1.34 -2.7,1.61 -0.95,0.27 -1.88,0.26 -2.79,-0.01 -0.91,-0.27 -1.74,-0.81 -2.5,-1.6 -0.76,-0.79 -1.25,-1.65 -1.47,-2.58 -0.23,-0.92 -0.18,-1.85 0.13,-2.79 0.32,-0.94 0.9,-1.81 1.74,-2.61 0.84,-0.8 1.75,-1.34 2.7,-1.61 0.96,-0.27 1.89,-0.27 2.8,0 0.91,0.28 1.74,0.81 2.5,1.6 0.76,0.8 1.25,1.65 1.47,2.58 0.23,0.92 0.18,1.85 -0.14,2.8 -0.32,0.94 -0.9,1.82 -1.75,2.62zm-1.96 -2.06c0.54,-0.51 0.8,-1.1 0.78,-1.78 -0.01,-0.67 -0.29,-1.29 -0.83,-1.86 -0.54,-0.57 -1.15,-0.88 -1.82,-0.92 -0.67,-0.04 -1.28,0.19 -1.81,0.69 -0.53,0.5 -0.78,1.09 -0.77,1.76 0.01,0.67 0.29,1.3 0.83,1.86 0.54,0.57 1.15,0.87 1.82,0.92 0.67,0.05 1.27,-0.18 1.8,-0.68zm-3.47 -13.77l2.31 -2.43 10.83 10.3 -2.31 2.43 -10.83 -10.3zm11.84 -6.35l2.38 -2.74 7.07 14.89 -2.34 2.69 -2.21 -4.65 -10.53 -3.74 2.37 -2.72 3.31 1.27 3.35 1.39 -1.78 -3.19 -1.63 -3.2zm15.02 -4.5c0.7,-0.36 1.39,-0.51 2.09,-0.46 0.69,0.05 1.34,0.3 1.93,0.77 0.69,0.54 1.16,1.21 1.39,2.01 0.23,0.8 0.22,1.65 -0.04,2.57 -0.26,0.92 -0.75,1.84 -1.47,2.75 -0.7,0.9 -1.46,1.56 -2.28,2.01 -0.82,0.44 -1.64,0.64 -2.46,0.58 -0.82,-0.06 -1.59,-0.37 -2.3,-0.92 -0.18,-0.14 -0.31,-0.25 -0.39,-0.33l1.99 -2.53c0.53,0.45 1.08,0.63 1.64,0.54 0.56,-0.09 1.09,-0.45 1.58,-1.08 0.44,-0.56 0.67,-1.11 0.69,-1.66 0.02,-0.54 -0.17,-0.98 -0.59,-1.3 -0.43,-0.33 -0.88,-0.43 -1.36,-0.29 -0.48,0.14 -0.95,0.5 -1.42,1.1 -0.72,0.92 -1.52,1.58 -2.41,2 -0.89,0.41 -1.8,0.56 -2.72,0.44 -0.93,-0.12 -1.81,-0.51 -2.65,-1.17 -0.81,-0.63 -1.37,-1.39 -1.7,-2.27 -0.33,-0.88 -0.4,-1.81 -0.21,-2.77 0.19,-0.97 0.63,-1.89 1.32,-2.78 0.54,-0.68 1.16,-1.2 1.88,-1.56l-0.44 -1.92 2.91 -0.84 0.43 2.12c1.08,-0.06 2.06,0.26 2.94,0.95 0.61,0.48 1.07,1.08 1.35,1.78 0.29,0.71 0.39,1.46 0.3,2.26zm-3.24 2.02c0.46,-0.58 0.65,-1.19 0.57,-1.83 -0.08,-0.64 -0.41,-1.19 -1.01,-1.66 -0.59,-0.47 -1.2,-0.66 -1.83,-0.58 -0.63,0.08 -1.18,0.41 -1.64,1 -0.46,0.58 -0.65,1.19 -0.58,1.83 0.07,0.63 0.4,1.18 1,1.65 0.58,0.46 1.19,0.65 1.84,0.58 0.65,-0.07 1.2,-0.4 1.65,-0.98zm10.32 -8.56c-0.67,0.95 -1.45,1.65 -2.34,2.1 -0.88,0.45 -1.8,0.62 -2.74,0.53 -0.94,-0.09 -1.86,-0.46 -2.76,-1.09 -0.89,-0.63 -1.54,-1.38 -1.94,-2.24 -0.4,-0.86 -0.54,-1.78 -0.41,-2.76 0.13,-0.98 0.53,-1.95 1.21,-2.9 0.67,-0.95 1.45,-1.65 2.34,-2.1 0.89,-0.45 1.8,-0.63 2.75,-0.54 0.95,0.09 1.86,0.46 2.76,1.09 0.89,0.63 1.54,1.38 1.94,2.24 0.4,0.86 0.54,1.78 0.4,2.77 -0.13,0.99 -0.54,1.96 -1.21,2.91zm-2.32 -1.65c0.43,-0.6 0.57,-1.23 0.43,-1.89 -0.15,-0.66 -0.53,-1.21 -1.17,-1.67 -0.64,-0.45 -1.29,-0.64 -1.96,-0.56 -0.67,0.09 -1.22,0.43 -1.65,1.03 -0.42,0.59 -0.56,1.22 -0.42,1.88 0.14,0.66 0.53,1.22 1.17,1.67 0.64,0.45 1.29,0.64 1.97,0.56 0.67,-0.08 1.21,-0.42 1.63,-1.02zm0.26 -15.96c0.65,-1.14 1.54,-1.83 2.67,-2.08 1.13,-0.25 2.34,0 3.65,0.76l5.17 2.96 -1.67 2.91 -5 -2.87c-0.59,-0.34 -1.14,-0.46 -1.64,-0.35 -0.51,0.11 -0.9,0.42 -1.2,0.93 -0.33,0.57 -0.4,1.13 -0.21,1.7 0.18,0.56 0.58,1.02 1.2,1.38l4.81 2.76 -1.67 2.91 -9.15 -5.25 1.45 -2.52 1.18 0.43c-0.2,-0.59 -0.27,-1.2 -0.21,-1.83 0.06,-0.63 0.27,-1.24 0.62,-1.85zm5.63 -20.35l1.44 -3.17 13.61 6.18 -1.3 2.86 -11.22 2.34 3.69 1.63 4.74 2.15 -1.44 3.17 -13.6 -6.18 1.3 -2.86 11.26 -2.32 -3.65 -1.61 -4.82 -2.19zm7.72 -8.13c0.42,-1.07 0.99,-1.92 1.69,-2.55 0.71,-0.63 1.52,-1 2.41,-1.13 0.9,-0.13 1.84,-0 2.82,0.38 0.32,0.13 0.7,0.31 1.13,0.56l-2.82 7.22c0.54,0.1 1.06,-0.01 1.54,-0.34 0.49,-0.33 0.87,-0.84 1.14,-1.54 0.19,-0.49 0.31,-1 0.34,-1.52 0.04,-0.52 -0.01,-1 -0.15,-1.43l2.39 -0.95c0.3,0.76 0.44,1.58 0.42,2.45 -0.02,0.87 -0.2,1.74 -0.53,2.6 -0.45,1.14 -1.04,2.04 -1.78,2.72 -0.74,0.67 -1.59,1.08 -2.53,1.23 -0.95,0.15 -1.94,0.02 -2.99,-0.39 -1.01,-0.39 -1.81,-0.97 -2.42,-1.71 -0.61,-0.75 -0.97,-1.61 -1.09,-2.57 -0.12,-0.96 0.03,-1.97 0.43,-3.01zm2.51 0.86c-0.24,0.63 -0.28,1.19 -0.12,1.71 0.16,0.52 0.52,0.91 1.07,1.19l1.69 -4.33c-0.59,-0.18 -1.11,-0.15 -1.58,0.11 -0.47,0.25 -0.82,0.7 -1.07,1.33zm11.72 -11.34c0.17,0.91 0.11,1.86 -0.18,2.86 -0.32,1.11 -0.88,1.89 -1.69,2.36 -0.81,0.46 -1.9,0.5 -3.28,0.1l-3.84 -1.1 -0.5 1.72 -2.56 -0.74 0.5 -1.72 -2.53 -0.73 0.57 -3.3 2.87 0.83 0.73 -2.53 2.56 0.74 -0.73 2.52 3.84 1.1c0.41,0.12 0.74,0.1 1,-0.04 0.26,-0.15 0.43,-0.4 0.54,-0.76 0.11,-0.4 0.13,-0.81 0.05,-1.25l2.64 -0.06zm-6.46 -16.18l0.8 -3.45 9.49 5.79 -0.71 3.1 -2.71 0.27 -3.58 0.43 3.03 1.95 2.32 1.43 -0.71 3.12 -11.07 1.07 0.79 -3.45 3.37 -0.19 3.35 -0.06 -5.78 -3.81 0.5 -2.16 6.89 -0.89 -3 -1.52 -2.96 -1.62zm12.11 -7.1c-0.15,1.16 -0.51,2.14 -1.08,2.95 -0.57,0.81 -1.3,1.39 -2.17,1.75 -0.88,0.36 -1.86,0.47 -2.95,0.33 -1.09,-0.14 -2.01,-0.5 -2.77,-1.07 -0.76,-0.57 -1.31,-1.32 -1.66,-2.25 -0.35,-0.93 -0.44,-1.97 -0.29,-3.13 0.15,-1.16 0.51,-2.14 1.08,-2.96 0.58,-0.82 1.3,-1.4 2.18,-1.76 0.88,-0.36 1.86,-0.47 2.95,-0.33 1.09,0.14 2.01,0.5 2.77,1.07 0.76,0.57 1.31,1.33 1.66,2.26 0.35,0.93 0.44,1.98 0.29,3.14zm-2.82 -0.37c0.09,-0.73 -0.07,-1.36 -0.51,-1.87 -0.44,-0.52 -1.04,-0.82 -1.82,-0.92 -0.78,-0.1 -1.44,0.04 -1.99,0.43 -0.55,0.39 -0.88,0.95 -0.97,1.68 -0.09,0.72 0.08,1.34 0.51,1.85 0.43,0.52 1.04,0.82 1.82,0.93 0.78,0.1 1.44,-0.04 2,-0.43 0.55,-0.39 0.87,-0.94 0.97,-1.66zm-6.63 -14.12c0.04,-0.48 0.16,-0.96 0.38,-1.43 0.21,-0.47 0.5,-0.87 0.87,-1.2l2.34 1.59c-0.21,0.28 -0.37,0.55 -0.47,0.8 -0.11,0.25 -0.17,0.52 -0.19,0.8 -0.05,0.71 0.13,1.29 0.55,1.73 0.42,0.45 1.07,0.7 1.95,0.77l5.11 0.39 -0.25 3.34 -10.52 -0.8 0.22 -2.92 1.34 -0.15c-0.98,-0.76 -1.43,-1.73 -1.34,-2.93zm11.36 -13.71l-0.09 4.14 -4.25 3.13 4.18 0.09 -0.07 3.33 -14.94 -0.33 0.07 -3.33 8.39 0.19 -3.92 -3.01 0.08 -3.82 4.91 3.91 5.65 -4.3z"/>
   <path class="fil2" d="M138.52 369.15c-0.02,0.03 0,0.02 -0.06,0.07 -0.03,0.02 -0.04,0.02 -0.08,0.04 -0.06,0.03 -0.06,0.05 -0.14,0.07 -0.12,0.01 -0.04,0.01 -0.13,0.06l-0.6 0.35c-0.01,0 -0.01,0.01 -0.02,0.01l-1.88 1.11c-0,0 -0.01,0.01 -0.02,0.01l-0.25 0.15c-0.05,0.03 -0.09,0.04 -0.13,0.07 -0.29,0.16 -0.7,0.38 -0.9,0.63 -0.07,0.09 -0.13,0.15 -0.16,0.26 -0.04,0.13 0.02,0.09 -0.07,0.12l0 5.96c0.11,0.05 -0,0.13 0.31,0.49 0.1,0.12 0.22,0.22 0.36,0.3 0.02,0.01 0.03,0.02 0.05,0.03l0.72 0.42c0.07,0.05 0.08,0.04 0.15,0.08l0.3 0.18c0.06,0.03 0.1,0.05 0.16,0.09l3.18 1.81c0.32,0.12 0.71,0.12 1.08,-0.07l3.37 -1.95c0.01,-0 0.01,-0.01 0.02,-0.01 0.01,-0 0.03,-0.02 0.04,-0.02 0.04,-0.02 -0.04,-0.01 0.06,-0.03l0.03 -0.07 0.08 -0.02c0.09,-0.01 0.16,-0.06 0.28,-0.14l0.33 -0.18c0,-0 0.01,-0.01 0.02,-0.01l0.29 -0.17c0.01,-0 0.03,-0.02 0.04,-0.02l0.21 -0.13c0.05,-0.03 0.09,-0.05 0.15,-0.08 0,-0 0.01,-0.01 0.02,-0.01l1.42 -0.83c0.04,-0.02 0.04,-0.02 0.07,-0.04l0.43 -0.25c0.02,-0.01 0.05,-0.03 0.07,-0.04l0.07 -0.04c0.04,-0.02 0.03,-0.02 0.07,-0.04l1 -0.57c0.12,-0.06 0.11,-0.01 0.13,-0.09 0.11,-0.08 0.64,-0.2 0.83,-0.01 0.19,-0.01 0.92,0.47 1.11,0.58 0.03,0.02 0.06,0.03 0.09,0.05 0.07,0.04 0.2,0.13 0.28,0.14 0.1,0.04 0.07,0.03 0.12,0.1l0.23 0.13c0.04,0.02 0.09,0.05 0.13,0.07 0.08,0.04 -0.02,0.04 0.12,0.04 0.11,0.04 0.04,-0.01 0.1,0.09 0.12,0.03 0.05,0.02 0.08,0.04 0.32,0.21 0.47,0.24 0.73,0.56 0.08,0.09 0.21,0.35 0.22,0.49l0.01 3.05c-0.02,0.6 -0.36,0.89 -0.83,1.17 -0.03,0.02 -0.04,0.02 -0.08,0.04 -0.1,0.06 0,0.04 -0.13,0.08l-0.03 0.07 -0.07 0.02c-0.15,0 -0.01,-0.01 -0.12,0.04l-0.18 0.11c-0.01,0 -0.01,0.01 -0.02,0.01l-0.62 0.35c-0.04,0.12 0.03,0.04 -0.1,0.11 -0.05,0.02 -0.06,0.02 -0.11,0.05l-0.42 0.24c-0.1,0.07 -0.35,0.2 -0.44,0.21 -0.34,0.04 -0.33,0.09 -0.74,-0.01l-0.52 -0.26c-0.01,-0 -0.01,-0.01 -0.02,-0.01l-0.11 -0.07c-0,-0 -0.01,-0.01 -0.02,-0.01l-0.05 -0.04c-0.05,-0.03 -0.06,-0.04 -0.14,-0.04 -0.07,-0.02 -0.09,-0.02 -0.12,-0.09 -0.11,-0.03 -0.01,-0.02 -0.14,-0.09 -0,-0 -0.1,-0.05 -0.1,-0.05 -0.05,-0.02 -0.01,-0.02 -0.07,-0.02l-0.08 -0.03 -0.04 -0.07c-0.06,-0.02 -0.04,-0.02 -0.08,-0.04l-0.13 -0.07c-0.12,-0.06 0.04,-0.04 -0.11,-0.05l-0.07 -0.02 -0.04 -0.07c-0.13,-0.03 -0.04,-0.02 -0.11,-0.06l-0.52 -0.3c-0.01,-0 -0.01,-0.01 -0.02,-0.01 -0.03,-0.02 -0.04,-0.02 -0.09,-0.06 -0.14,-0.08 -0.23,-0.16 -0.32,-0.27 -0.12,-0.14 -0.27,-0.48 -0.29,-0.59 -0.01,-0.06 -0,-0.21 -0,-0.28 0,-0.35 0.02,-1.54 -0.02,-1.71 -0.11,0 -0.35,0.13 -0.45,0.19l-0.05 0.03c-0.01,0 -0.01,0.01 -0.02,0.01 -0.3,0.17 -0.82,0.5 -1.09,0.63l-0.09 0.05c-0,0 -0.01,0.01 -0.02,0.01 -0.21,0.16 -0.25,0.15 -0.39,0.22 -0.1,0.57 0,1.63 -0,2.24l0.07 0.03 0.01 0.08c0.01,0.12 0.06,0.17 0.12,0.26 0.24,0.35 0.31,0.37 0.71,0.6l0.09 0.05c0,0 0.01,0.01 0.02,0.01l0.28 0.17c0.12,0.07 0.31,0.21 0.43,0.22 0.1,0.03 0.07,0.02 0.12,0.1l0.42 0.25c0.01,0 0.01,0.01 0.02,0.01 0.01,0 0.01,0.01 0.02,0.01 0,0 0.01,0.01 0.02,0.01l2.27 1.32c0.03,0.02 0.06,0.04 0.11,0.06l0.31 0.17c0.14,0.08 0.16,0.06 0.2,0.13l0.9 0 0 -0.05c0.28,-0.04 0.86,-0.42 1.11,-0.57l0.17 -0.09c0.01,-0 0.01,-0.01 0.02,-0.01l1.67 -0.98c0.02,-0.02 0.06,-0.04 0.07,-0.04l0.03 -0.02c0.03,-0.02 0.03,-0.01 0.06,-0.03l0.31 -0.17c0.05,-0.03 0.1,-0.05 0.16,-0.09l0.47 -0.27c0.04,-0.02 0.1,-0.06 0.15,-0.08 0.05,-0.03 0,-0.01 0.07,-0.04 0.04,-0.02 0.05,-0.02 0.1,-0.05l0.52 -0.33c0.05,-0.05 0.02,0.03 0.05,-0.07 0.02,-0.07 -0,-0.03 0.03,-0.07 0.03,-0.04 0.02,-0.01 0.06,-0.04 0.04,-0.14 0.13,-0.06 0.19,-0.4l0.04 0 0 -6.03c-0.08,-0.04 -0.02,0 -0.06,-0.07 0,-0 -0.02,-0.05 -0.02,-0.06 -0.05,-0.11 -0.02,0.02 -0.06,-0.11 -0.06,-0.05 -0.08,-0.04 -0.09,-0.12 -0.04,-0.2 -0.62,-0.52 -0.83,-0.63 -0.04,-0.02 -0.05,-0.03 -0.11,-0.06l-0.35 -0.2c-0,-0 -0.01,-0.01 -0.02,-0.01 -0.08,-0.05 -0.17,-0.12 -0.26,-0.13l-0.08 -0.02 -0.03 -0.07 -0.25 -0.13c-0.11,-0.07 -0.15,-0.12 -0.23,-0.12l-0.09 -0.02 -0.03 -0.07c-0.09,-0.03 -0.05,-0.04 -0.16,-0.1l-0.5 -0.29c-0.11,-0.07 -0.24,-0.14 -0.35,-0.2l-0.86 -0.5c-0,-0 -0.01,-0.01 -0.02,-0.01 -0.01,-0 -0.03,-0.02 -0.03,-0.02l-0.05 -0.03c-0,-0 -0.01,-0.01 -0.02,-0.01 -0.04,-0.02 -0.06,-0.03 -0.09,-0.05l-0.18 -0.1c-0.12,-0.06 -0.22,-0.15 -0.41,-0.22 -0.01,-0 -0.45,-0.09 -0.45,-0.09 -0.12,-0.01 -0.13,0.01 -0.22,0.04 -0.11,0.04 -0.12,0.02 -0.24,0.03 -0.15,0.02 -0.4,0.2 -0.52,0.26l-0.72 0.42c-0.01,0 -0.03,0.02 -0.03,0.02 -0.06,0.04 -0.02,0.02 -0.07,0.04l-0.14 0.08c-0,0 -0.01,0.01 -0.02,0.01 -0,0 -0.01,0.01 -0.02,0.01 -0.06,0.03 -0.09,0.04 -0.17,0.09l-0.32 0.19c-0.1,0.05 -0.2,0.13 -0.34,0.2l-0.04 0.02c-0.01,0 -0.01,0.01 -0.02,0.01l-0.28 0.17c-0.07,0.05 -0.09,0.06 -0.18,0.11l-1.16 0.67c-0.04,0.02 -0.06,0.03 -0.1,0.04l-0.77 0.43c-0.02,0.01 -0.05,0.03 -0.05,0.03l-1.28 0.75c-0.06,0.04 -0.1,0.05 -0.16,0.09l-0.82 0.5c-0.13,0.07 -0.04,0.06 -0.15,0.09l-0.03 0.07 -0.08 0.02c-0.11,0.01 -0.02,-0.01 -0.2,0.1l-0.19 0.1c-0.04,0.02 0,0 -0.05,0.03l-0.14 0.09c-0.04,0.03 -0.05,0.03 -0.09,0.05 -0.04,0.03 -0.04,0.03 -0.09,0.06 -0.31,0.17 -0.56,0.27 -0.92,0.2 -0.09,-0.02 -0.18,-0.01 -0.26,-0.05l-1.19 -0.68c-0.13,-0.07 0.03,-0.04 -0.13,-0.06 -0.1,-0.03 -0.07,-0.02 -0.12,-0.1 -0.13,-0.02 -0.02,-0 -0.09,-0.04l-0.62 -0.38c-0.47,-0.29 -0.97,-0.61 -0.99,-1.23l0 -2.25c0,-0.49 -0.06,-0.78 0.19,-1.21 0.13,-0.24 0.38,-0.39 0.61,-0.54l0.34 -0.2c0.11,-0.05 0,0 0.09,-0.05 0.02,-0.02 -0.02,-0.02 0.06,-0.03l0.03 -0.07 0.08 -0.02c0.16,-0.01 0,0.01 0.08,-0.03l0.05 -0.03c0.06,-0.04 0.06,-0.03 0.11,-0.06 0.01,-0 0.01,-0.01 0.02,-0.01 0,-0 0.01,-0.01 0.02,-0.01l1.28 -0.74c0.09,-0.06 0.16,-0.06 0.25,-0.1 0.05,-0.02 -0.02,-0.01 0.09,-0.03l0.26 -0.01c0.42,-0 0.46,0.03 0.81,0.23l1.23 0.74c0,0 0.01,0.01 0.02,0.01l0.57 0.34c0.04,0.02 0.02,0.01 0.05,0.03l0.32 0.2c0.16,0.09 0.28,0.2 0.37,0.32l0.23 0.48c0.06,0.15 0.03,1.81 0.03,2.04 0.01,0.01 0.06,0.03 0.07,0.03 0.01,0 0.02,0.02 0.03,0.01 0.01,-0.01 0.02,0 0.03,0.01 0.1,-0.02 0.09,-0.02 0.17,-0.07 0.01,-0 0.01,-0.01 0.02,-0.01l1.33 -0.78c0.04,-0.03 0.18,-0.11 0.21,-0.12l0.03 -0.07 0.1 -0.01c0.09,-0.03 0.04,-0.04 0.15,-0.1 0.02,-0.49 0,-1.02 0,-1.52 0,-0.64 0.02,-0.78 -0.28,-1.2 -0.11,-0.06 -0.02,0.02 -0.1,-0.07 -0.06,-0.06 -0.02,-0.02 -0.06,-0.11l-3.37 -2.02c-0,-0 -0.01,-0.01 -0.02,-0.01l-0.16 -0.1c-0,-0 -0.01,-0.01 -0.02,-0.01l-0.91 -0.54c-0.27,-0.18 -0.24,-0.02 -0.3,-0.16l-0.9 0c-0.05,0.09 0.04,-0.01 -0.05,0.05l-0.72 0.4c-0.07,0.04 0.04,0.01 -0.08,0.04z"/>
   <path class="fil2" d="M347.21 369.06c0.02,0.03 0,0.02 0.06,0.07 0.03,0.02 0.04,0.02 0.08,0.04 0.06,0.03 0.06,0.05 0.14,0.07 0.12,0.01 0.04,0.01 0.13,0.06l0.6 0.35c0.01,0 0.01,0.01 0.02,0.01l1.88 1.11c0,0 0.01,0.01 0.02,0.01l0.25 0.15c0.05,0.03 0.09,0.04 0.13,0.07 0.29,0.16 0.7,0.38 0.9,0.63 0.07,0.09 0.13,0.15 0.16,0.26 0.04,0.13 -0.02,0.09 0.07,0.12l0 5.96c-0.11,0.05 0,0.13 -0.31,0.49 -0.1,0.12 -0.22,0.22 -0.36,0.3 -0.02,0.01 -0.03,0.02 -0.05,0.03l-0.72 0.42c-0.07,0.05 -0.08,0.04 -0.15,0.08l-0.3 0.18c-0.06,0.03 -0.1,0.05 -0.16,0.09l-3.18 1.81c-0.32,0.12 -0.71,0.12 -1.08,-0.07l-3.37 -1.95c-0.01,-0 -0.01,-0.01 -0.02,-0.01 -0.01,-0 -0.03,-0.02 -0.04,-0.02 -0.04,-0.02 0.04,-0.01 -0.06,-0.03l-0.03 -0.07 -0.08 -0.02c-0.09,-0.01 -0.16,-0.06 -0.28,-0.14l-0.33 -0.18c-0,-0 -0.01,-0.01 -0.02,-0.01l-0.29 -0.17c-0.01,-0 -0.03,-0.02 -0.04,-0.02l-0.21 -0.13c-0.05,-0.03 -0.09,-0.05 -0.15,-0.08 -0,-0 -0.01,-0.01 -0.02,-0.01l-1.42 -0.83c-0.04,-0.02 -0.04,-0.02 -0.07,-0.04l-0.43 -0.25c-0.02,-0.01 -0.05,-0.03 -0.07,-0.04l-0.07 -0.04c-0.04,-0.02 -0.03,-0.02 -0.07,-0.04l-1 -0.57c-0.12,-0.06 -0.11,-0.01 -0.13,-0.09 -0.11,-0.08 -0.64,-0.2 -0.83,-0.01 -0.19,-0.01 -0.92,0.47 -1.11,0.58 -0.03,0.02 -0.06,0.03 -0.09,0.05 -0.07,0.04 -0.2,0.13 -0.28,0.14 -0.1,0.04 -0.07,0.03 -0.12,0.1l-0.23 0.13c-0.04,0.02 -0.09,0.05 -0.13,0.07 -0.08,0.04 0.02,0.04 -0.12,0.04 -0.11,0.04 -0.04,-0.01 -0.1,0.09 -0.12,0.03 -0.05,0.02 -0.08,0.04 -0.32,0.21 -0.47,0.24 -0.73,0.56 -0.08,0.09 -0.21,0.35 -0.22,0.49l-0.01 3.05c0.02,0.6 0.36,0.89 0.83,1.17 0.03,0.02 0.04,0.02 0.08,0.04 0.1,0.06 -0,0.04 0.13,0.08l0.03 0.07 0.07 0.02c0.15,0 0.01,-0.01 0.12,0.04l0.18 0.11c0.01,0 0.01,0.01 0.02,0.01l0.62 0.35c0.04,0.12 -0.03,0.04 0.1,0.11 0.05,0.02 0.06,0.02 0.11,0.05l0.42 0.24c0.1,0.07 0.35,0.2 0.44,0.21 0.34,0.04 0.33,0.09 0.74,-0.01l0.52 -0.26c0.01,-0 0.01,-0.01 0.02,-0.01l0.11 -0.07c0,-0 0.01,-0.01 0.02,-0.01l0.05 -0.04c0.05,-0.03 0.06,-0.04 0.14,-0.04 0.07,-0.02 0.09,-0.02 0.12,-0.09 0.11,-0.03 0.01,-0.02 0.14,-0.09 0,-0 0.1,-0.05 0.1,-0.05 0.05,-0.02 0.01,-0.02 0.07,-0.02l0.08 -0.03 0.04 -0.07c0.06,-0.02 0.04,-0.02 0.08,-0.04l0.13 -0.07c0.12,-0.06 -0.04,-0.04 0.11,-0.05l0.07 -0.02 0.04 -0.07c0.13,-0.03 0.04,-0.02 0.11,-0.06l0.52 -0.3c0.01,-0 0.01,-0.01 0.02,-0.01 0.03,-0.02 0.04,-0.02 0.09,-0.06 0.14,-0.08 0.23,-0.16 0.32,-0.27 0.12,-0.14 0.27,-0.48 0.29,-0.59 0.01,-0.06 0,-0.21 0,-0.28 0,-0.35 -0.02,-1.54 0.02,-1.71 0.11,0 0.35,0.13 0.45,0.19l0.05 0.03c0.01,0 0.01,0.01 0.02,0.01 0.3,0.17 0.82,0.5 1.09,0.63l0.09 0.05c0,0 0.01,0.01 0.02,0.01 0.21,0.16 0.25,0.15 0.39,0.22 0.1,0.57 -0,1.63 0,2.24l-0.07 0.03 -0.01 0.08c-0.01,0.12 -0.06,0.17 -0.12,0.26 -0.24,0.35 -0.31,0.37 -0.71,0.6l-0.09 0.05c-0,0 -0.01,0.01 -0.02,0.01l-0.28 0.17c-0.12,0.07 -0.31,0.21 -0.43,0.22 -0.1,0.03 -0.07,0.02 -0.12,0.1l-0.42 0.25c-0.01,0 -0.01,0.01 -0.02,0.01 -0.01,0 -0.01,0.01 -0.02,0.01 -0,0 -0.01,0.01 -0.02,0.01l-2.27 1.32c-0.03,0.02 -0.06,0.04 -0.11,0.06l-0.31 0.17c-0.14,0.08 -0.16,0.06 -0.2,0.13l-0.9 0 0 -0.05c-0.28,-0.04 -0.86,-0.42 -1.11,-0.57l-0.17 -0.09c-0.01,-0 -0.01,-0.01 -0.02,-0.01l-1.67 -0.98c-0.02,-0.02 -0.06,-0.04 -0.07,-0.04l-0.03 -0.02c-0.03,-0.02 -0.03,-0.01 -0.06,-0.03l-0.31 -0.17c-0.05,-0.03 -0.1,-0.05 -0.16,-0.09l-0.47 -0.27c-0.04,-0.02 -0.1,-0.06 -0.15,-0.08 -0.05,-0.03 -0,-0.01 -0.07,-0.04 -0.04,-0.02 -0.05,-0.02 -0.1,-0.05l-0.52 -0.33c-0.05,-0.05 -0.02,0.03 -0.05,-0.07 -0.02,-0.07 0,-0.03 -0.03,-0.07 -0.03,-0.04 -0.02,-0.01 -0.06,-0.04 -0.04,-0.14 -0.13,-0.06 -0.19,-0.4l-0.04 0 0 -6.03c0.08,-0.04 0.02,0 0.06,-0.07 0,-0 0.02,-0.05 0.02,-0.06 0.05,-0.11 0.02,0.02 0.06,-0.11 0.06,-0.05 0.08,-0.04 0.09,-0.12 0.04,-0.2 0.62,-0.52 0.83,-0.63 0.04,-0.02 0.05,-0.03 0.11,-0.06l0.35 -0.2c0,-0 0.01,-0.01 0.02,-0.01 0.08,-0.05 0.17,-0.12 0.26,-0.13l0.08 -0.02 0.03 -0.07 0.25 -0.13c0.11,-0.07 0.15,-0.12 0.23,-0.12l0.09 -0.02 0.03 -0.07c0.09,-0.03 0.05,-0.04 0.16,-0.1l0.5 -0.29c0.11,-0.07 0.24,-0.14 0.35,-0.2l0.86 -0.5c0,-0 0.01,-0.01 0.02,-0.01 0.01,-0 0.03,-0.02 0.03,-0.02l0.05 -0.03c0,-0 0.01,-0.01 0.02,-0.01 0.04,-0.02 0.06,-0.03 0.09,-0.05l0.18 -0.1c0.12,-0.06 0.22,-0.15 0.41,-0.22 0.01,-0 0.45,-0.09 0.45,-0.09 0.12,-0.01 0.13,0.01 0.22,0.04 0.11,0.04 0.12,0.02 0.24,0.03 0.15,0.02 0.4,0.2 0.52,0.26l0.72 0.42c0.01,0 0.03,0.02 0.03,0.02 0.06,0.04 0.02,0.02 0.07,0.04l0.14 0.08c0,0 0.01,0.01 0.02,0.01 0,0 0.01,0.01 0.02,0.01 0.06,0.03 0.09,0.04 0.17,0.09l0.32 0.19c0.1,0.05 0.2,0.13 0.34,0.2l0.04 0.02c0.01,0 0.01,0.01 0.02,0.01l0.28 0.17c0.07,0.05 0.09,0.06 0.18,0.11l1.16 0.67c0.04,0.02 0.06,0.03 0.1,0.04l0.77 0.43c0.02,0.01 0.05,0.03 0.05,0.03l1.28 0.75c0.06,0.04 0.1,0.05 0.16,0.09l0.82 0.5c0.13,0.07 0.04,0.06 0.15,0.09l0.03 0.07 0.08 0.02c0.11,0.01 0.02,-0.01 0.2,0.1l0.19 0.1c0.04,0.02 0,0 0.05,0.03l0.14 0.09c0.04,0.03 0.05,0.03 0.09,0.05 0.04,0.03 0.04,0.03 0.09,0.06 0.31,0.17 0.56,0.27 0.92,0.2 0.09,-0.02 0.18,-0.01 0.26,-0.05l1.19 -0.68c0.13,-0.07 -0.03,-0.04 0.13,-0.06 0.1,-0.03 0.07,-0.02 0.12,-0.1 0.13,-0.02 0.02,-0 0.09,-0.04l0.62 -0.38c0.47,-0.29 0.97,-0.61 0.99,-1.23l0 -2.25c0,-0.49 0.06,-0.78 -0.19,-1.21 -0.13,-0.24 -0.38,-0.39 -0.61,-0.54l-0.34 -0.2c-0.11,-0.05 0,0 -0.09,-0.05 -0.02,-0.02 0.02,-0.02 -0.06,-0.03l-0.03 -0.07 -0.08 -0.02c-0.16,-0.01 -0,0.01 -0.08,-0.03l-0.05 -0.03c-0.06,-0.04 -0.06,-0.03 -0.11,-0.06 -0.01,-0 -0.01,-0.01 -0.02,-0.01 -0,-0 -0.01,-0.01 -0.02,-0.01l-1.28 -0.74c-0.09,-0.06 -0.16,-0.06 -0.25,-0.1 -0.05,-0.02 0.02,-0.01 -0.09,-0.03l-0.26 -0.01c-0.42,-0 -0.46,0.03 -0.81,0.23l-1.23 0.74c-0,0 -0.01,0.01 -0.02,0.01l-0.57 0.34c-0.04,0.02 -0.02,0.01 -0.05,0.03l-0.32 0.2c-0.16,0.09 -0.28,0.2 -0.37,0.32l-0.23 0.48c-0.06,0.15 -0.03,1.81 -0.03,2.04 -0.01,0.01 -0.06,0.03 -0.07,0.03 -0.01,0 -0.02,0.02 -0.03,0.01 -0.01,-0.01 -0.02,0 -0.03,0.01 -0.1,-0.02 -0.09,-0.02 -0.17,-0.07 -0.01,-0 -0.01,-0.01 -0.02,-0.01l-1.33 -0.78c-0.04,-0.03 -0.18,-0.11 -0.21,-0.12l-0.03 -0.07 -0.1 -0.01c-0.09,-0.03 -0.04,-0.04 -0.15,-0.1 -0.02,-0.49 -0,-1.02 -0,-1.52 0,-0.64 -0.02,-0.78 0.28,-1.2 0.11,-0.06 0.02,0.02 0.1,-0.07 0.06,-0.06 0.02,-0.02 0.06,-0.11l3.37 -2.02c0,-0 0.01,-0.01 0.02,-0.01l0.16 -0.1c0,-0 0.01,-0.01 0.02,-0.01l0.91 -0.54c0.27,-0.18 0.24,-0.02 0.3,-0.16l0.9 0c0.05,0.09 -0.04,-0.01 0.05,0.05l0.72 0.4c0.07,0.04 -0.04,0.01 0.08,0.04z"/>
   <path class="fil2" d="M364.85 214.49l53.67 0 0 -1.85 -52.95 0 -6.5 -5.95c-4.83,-53.44 -45.2,-96.04 -98.31,-103.65l-0.26 1.83c52.37,7.5 92.16,49.58 96.76,102.34l0.03 0.36 7.56 6.92z"/>
   <path class="fil2" d="M134.23 182.39l-0.14 0.45 7.32 10.01 39.52 0 0 -1.85 -38.58 0 -6.22 -8.49c10.87,-33.97 37.5,-61.13 71.3,-72.72l-0.6 -1.75c-34.5,11.83 -61.65,39.62 -72.61,74.36z"/>
   <path class="fil2" d="M260.49 111.27c50.61,7.75 88.63,50.3 90.74,101.37l-9.49 0 -12.59 -12.59 0 -25 -1.85 0 0 25.76 13.67 13.67 12.18 0 -0.03 -0.96c-1.7,-52.38 -40.53,-96.15 -92.34,-104.09l-0.28 1.83z"/>
   <path class="fil2" d="M143.96 174.47l-0.2 0.46 7.06 10.71 30.13 0 0 -1.85 -29.13 0 -5.96 -9.05c11.64,-26.94 34.06,-48.14 61.6,-58.19l-0.64 -1.74c-28.17,10.28 -51.09,32.02 -62.86,59.65z"/>
   <path class="fil2" d="M244.21 326.09l0 -1.85c-6.93,0 -13.83,-0.65 -20.5,-1.94l-0.35 1.82c6.79,1.31 13.81,1.98 20.85,1.98z"/>
   <path class="fil2" d="M325.03 219.81l0 1.85 26.19 0c-2.11,51.08 -40.12,93.62 -90.74,101.33l-0.78 0.12 0 0.83 0.93 -0.02 0.13 0.89c51.81,-7.9 90.64,-51.66 92.34,-104.06l0.03 -0.95 -28.11 0z"/>
   <path class="fil2" d="M150.82 248.67l-7.06 10.71 0.2 0.45c11.78,27.63 34.69,49.37 62.86,59.66l0.64 -1.74c-27.54,-10.05 -49.97,-31.24 -61.6,-58.19l5.96 -9.05 29.13 0 0 -1.85 -30.13 0z"/>
   <path class="fil2" d="M161.4 255.88l-6.68 11.5 0.26 0.46c11.65,20.41 30.05,36.33 51.81,44.83l0.67 -1.72c-21.2,-8.28 -39.16,-23.74 -50.61,-43.56l5.61 -9.66 18.48 0 0 -1.85 -19.54 0z"/>
   <path class="fil2" d="M346.37 226.62l-75.31 0 0 1.85 73.25 0c-5.01,44.74 -39.34,80.88 -83.83,88.09l0.3 1.82c45.65,-7.39 80.8,-44.71 85.48,-90.75l0.11 -1.02z"/>
   <path class="fil2" d="M223.34 317.6c6.87,1.41 13.89,2.13 20.86,2.13l0 -1.85c-6.85,0 -13.74,-0.7 -20.49,-2.09l-0.37 1.81z"/>
   <path class="fil2" d="M260.48 117.74c44.83,7.26 79.34,43.91 83.94,89.11l1.84 -0.19c-4.68,-46.03 -39.83,-83.35 -85.48,-90.75l-0.3 1.82z"/>
   <path class="fil2" d="M161.4 178.42l19.54 0 0 -1.85 -18.48 0 -5.61 -9.66c11.46,-19.83 29.41,-35.29 50.61,-43.56l-0.67 -1.72c-21.76,8.5 -40.16,24.42 -51.81,44.83l-0.26 0.46 6.68 11.5z"/>
   <polygon class="fil2" points="415.55,248.67 410.04,248.67 410.04,250.52 415.55,250.52 "/>
   <path class="fil2" d="M141.41 241.46l-7.32 10 0.14 0.45c10.96,34.74 38.1,62.53 72.61,74.36l0.6 -1.75c-33.81,-11.59 -60.43,-38.75 -71.3,-72.72l6.22 -8.49 38.58 0 0 -1.85 -39.52 0z"/>
   <path class="fil2" d="M364.85 219.85l-7.56 6.92 -0.03 0.36c-4.6,52.72 -44.39,94.79 -96.76,102.3l0.26 1.83c53.11,-7.61 93.48,-50.19 98.31,-103.61l6.5 -5.95 52.95 -0.04 0 -1.85 -53.67 0.04z"/>
   <path class="fil2" d="M132.9 200.06l48.05 0 0 -1.85 -47.16 0 -6.36 -7.96c9.31,-40.52 39.41,-73.63 78.79,-86.76l0 28.02 1.85 0 0 -30.56 -1.21 0.39c-40.73,13.09 -71.9,47.17 -81.33,88.94l-0.1 0.43 7.47 9.35z"/>
   <path class="fil2" d="M125.11 207.27l55.84 0 0 -1.85 -54.99 0 -6.48 -7.53c7.58,-49.62 43.66,-89.78 92.17,-102.69l0 36.31 1.85 0 0 -38.7 -1.15 0.3c-49.95,12.8 -87.14,53.98 -94.76,104.93l-0.06 0.42 7.58 8.82z"/>
   <path class="fil2" d="M370.45 207.27l47.81 0 0 -1.85 -47.11 0 -6.47 -5.65c-7.65,-53.5 -50.34,-95.9 -103.91,-103.17l-1.05 -0.14 0 35.05 1.85 0 0 -32.93c52.38,7.59 93.97,49.3 101.33,101.79l0.05 0.34 7.51 6.56z"/>
   <path class="fil2" d="M259.71 302.12l0 35.72 1.05 -0.14c53.58,-7.28 96.26,-49.68 103.91,-103.17l6.47 -5.65 9.79 0 0 -1.85 -10.48 0 -7.51 6.56 -0.05 0.34c-7.36,52.49 -48.95,94.2 -101.33,101.79l0 -33.6 -1.85 0z"/>
   <polygon class="fil2" points="418.25,227.03 410.04,227.03 410.04,228.87 418.25,228.87 "/>
   <polygon class="fil2" points="245.13,302.12 243.28,302.12 243.28,350.62 245.13,350.62 "/>
   <polygon class="fil2" points="416.77,241.46 410.04,241.46 410.04,243.3 416.77,243.3 "/>
   <path class="fil2" d="M248.76 302.12l0 49.42 0.96 -0.04c59.93,-2.41 111.39,-44.81 125.27,-103.16l6.52 -5.17 -1.15 -1.45 -7.02 5.56 -0.07 0.31c-13.5,57.4 -63.86,99.22 -122.65,102.01l0 -47.49 -1.85 0z"/>
   <polygon class="fil2" points="417.66,234.24 410.04,234.24 410.04,236.09 417.66,236.09 "/>
   <path class="fil2" d="M380.93 236.09l0 -1.85 -5.22 0 -7.47 6.2 -0.06 0.33c-10.4,55 -56.43,96.82 -112.1,102.04l0 -40.68 -1.85 0 0 42.7 1 -0.09c56.84,-4.86 103.96,-47.31 114.71,-103.3l6.44 -5.35 4.55 0z"/>
   <polygon class="fil2" points="222.6,349.95 234.55,349.95 234.55,348.1 224.45,348.1 224.45,275.49 222.6,275.49 "/>
   <path class="fil2" d="M208.06 333.36l0 -57.87 -1.85 0 0 55.32c-39.43,-13.18 -69.52,-46.29 -78.79,-86.76l6.36 -7.96 47.16 0 0 -1.85 -48.05 0 -7.47 9.35 0.1 0.43c9.38,41.72 40.55,75.79 81.34,88.94l1.21 0.39z"/>
   <path class="fil2" d="M180.95 227.03l-55.84 0 -7.58 8.82 0.06 0.42c7.61,50.93 44.81,92.12 94.76,104.93l1.15 0.3 0 -66 -1.85 0 0 63.61c-48.51,-12.92 -84.59,-53.07 -92.17,-102.69l6.48 -7.53 54.99 0 0 -1.85z"/>
   <polygon class="fil2" points="223.53,95.77 234.54,95.77 234.54,93.92 223.53,93.92 "/>
   <polygon class="fil2" points="234.54,99.72 234.54,97.87 223.53,97.87 223.53,99.72 "/>
   <polygon class="fil2" points="234.54,345.84 234.54,343.98 223.53,343.98 223.53,345.84 "/>
   <polygon class="fil2" points="234.54,340.06 234.54,338.21 223.53,338.21 223.53,340.06 "/>
   <polygon class="fil2" points="223.53,335.91 234.54,335.91 234.54,334.06 223.53,334.06 "/>
   <path class="fil2" d="M388.93 215.13l0 3.25c0,1.32 1.07,2.4 2.4,2.4l14.72 0c1.32,0 2.4,-1.07 2.4,-2.4l0 -3.25c0,-1.32 -1.07,-2.4 -2.4,-2.4l-14.72 0c-1.32,0 -2.4,1.07 -2.4,2.4z"/>
   <path class="fil2" d="M406.05 198.31l-14.72 0c-1.32,0 -2.4,1.07 -2.4,2.4l0 3.25c0,1.32 1.07,2.4 2.4,2.4l14.72 0c1.32,0 2.4,-1.08 2.4,-2.4l0 -3.25c0,-1.32 -1.07,-2.4 -2.4,-2.4z"/>
   <path class="fil2" d="M139.24 206.76l14.72 0c1.32,0 2.4,-1.07 2.4,-2.4l0 -3.25c0,-1.32 -1.07,-2.4 -2.4,-2.4l-14.72 0c-1.32,0 -2.4,1.07 -2.4,2.4l0 3.25c0,1.32 1.07,2.4 2.4,2.4z"/>
   <path class="fil2" d="M156.36 218.78l0 -3.25c0,-1.32 -1.07,-2.4 -2.4,-2.4l-14.72 0c-1.32,0 -2.4,1.07 -2.4,2.4l0 3.25c0,1.32 1.07,2.4 2.4,2.4l14.72 0c1.32,0 2.4,-1.07 2.4,-2.4z"/>
   <path class="fil2" d="M326.99 223.55l9.74 0c1.08,0 1.95,-0.87 1.95,-1.95l0 -1.72c0,-1.08 -0.87,-1.95 -1.95,-1.95l-9.74 0c-1.08,0 -1.95,0.87 -1.95,1.95l0 1.72c0,1.08 0.87,1.95 1.95,1.95z"/>
   <path class="fil2" d="M329.78 172.79l-3.25 0c-1.32,0 -2.4,1.07 -2.4,2.4l0 14.72c0,1.32 1.07,2.4 2.4,2.4l3.25 0c1.32,0 2.4,-1.07 2.4,-2.4l0 -14.72c0,-1.32 -1.07,-2.4 -2.4,-2.4z"/>
   <path class="fil2" d="M317.91 212.91l9.31 0c0.84,0 1.52,-0.68 1.52,-1.52l0 -2.06c0,-0.84 -0.68,-1.52 -1.52,-1.52l-9.31 0c-0.84,0 -1.52,0.68 -1.52,1.52l0 2.06c0,0.84 0.68,1.52 1.52,1.52z"/>
   <path class="fil2" d="M310.93 274.15l9.31 0c0.84,0 1.52,-0.68 1.52,-1.52l0 -2.06c0,-0.84 -0.68,-1.52 -1.52,-1.52l-9.31 0c-0.84,0 -1.52,0.68 -1.52,1.52l0 2.06c0,0.84 0.68,1.52 1.52,1.52z"/>
   <path class="fil2" d="M139.24 235.58l14.72 0c1.32,0 2.4,-1.07 2.4,-2.4l0 -3.25c0,-1.32 -1.07,-2.4 -2.4,-2.4l-14.72 0c-1.32,0 -2.4,1.07 -2.4,2.4l0 3.25c0,1.32 1.07,2.4 2.4,2.4z"/>
   <path class="fil2" d="M241.2 98.58l0 -3.35c0,-1.03 -0.83,-1.86 -1.86,-1.86l-10.12 0c-1.03,0 -1.86,0.83 -1.86,1.86l0 3.35c0,1.03 0.83,1.86 1.86,1.86l10.12 0c1.03,0 1.86,-0.83 1.86,-1.86z"/>
   <path class="fil2" d="M229.21 350.52l10.12 0c1.03,0 1.86,-0.83 1.86,-1.86l0 -3.35c0,-1.03 -0.83,-1.86 -1.86,-1.86l-10.12 0c-1.03,0 -1.86,0.84 -1.86,1.86l0 3.35c0,1.03 0.83,1.86 1.86,1.86z"/>
   <path class="fil2" d="M241.2 338.77l0 -3.35c0,-1.03 -0.83,-1.86 -1.86,-1.86l-10.12 0c-1.03,0 -1.86,0.83 -1.86,1.86l0 3.35c0,1.03 0.83,1.86 1.86,1.86l10.12 0c1.03,0 1.86,-0.83 1.86,-1.86z"/>
   <path class="fil2" d="M410.97 224.4l-30.96 0 0 29.26 30.96 0 0 -29.26zm-29.11 1.85l27.27 0 0 25.56 -27.27 0 0 -25.56z"/>
   <polygon class="fil2" points="380.28,232.47 381.58,233.79 389.42,225.98 388.12,224.67 "/>
   <polygon class="fil2" points="401.51,252.08 402.81,253.39 410.69,245.55 409.39,244.24 "/>
   <polygon class="fil2" points="393.37,252.08 394.68,253.39 410.7,237.37 409.39,236.06 "/>
   <polygon class="fil2" points="418.44,229.24 416.59,229.24 416.59,229.28 "/>
   <polygon class="fil2" points="385.19,252.08 386.5,253.39 410.7,229.2 409.39,227.89 "/>
   <polygon class="fil2" points="380.27,248.83 381.58,250.14 405.78,225.98 404.47,224.67 "/>
   <polygon class="fil2" points="380.27,240.69 381.58,242 397.56,225.98 396.25,224.67 "/>
   <polygon class="fil2" points="337.18,227.85 335.33,227.85 335.33,248.65 328.44,255.54 226.98,255.54 226.98,257.39 329.2,257.39 337.18,249.41 "/>
   <polygon class="fil2" points="329.1,242.86 329.1,227.85 327.26,227.85 327.26,242.09 321.51,247.84 229.99,247.85 229.99,249.7 322.27,249.69 "/>
   <polygon class="fil2" points="318.69,242 318.69,227.85 316.84,227.85 316.84,240.16 248.9,240.16 248.9,242 "/>
   <path class="fil2" d="M313.15 242.19l0 -2.22c0,-0.91 -0.73,-1.64 -1.64,-1.64l-10.07 0c-0.91,0 -1.64,0.74 -1.64,1.64l0 2.22c0,0.91 0.73,1.64 1.64,1.64l10.07 0c0.91,0 1.64,-0.74 1.64,-1.64z"/>
   <path class="fil2" d="M317.54 249.88l0 -2.22c0,-0.9 -0.74,-1.64 -1.64,-1.64l-10.07 0c-0.91,0 -1.64,0.74 -1.64,1.64l0 2.22c0,0.91 0.73,1.64 1.64,1.64l10.07 0c0.91,0 1.64,-0.73 1.64,-1.64z"/>
   <path class="fil2" d="M310.35 259.21l10.07 0c0.91,0 1.64,-0.73 1.64,-1.64l0 -2.22c0,-0.91 -0.73,-1.64 -1.64,-1.64l-10.07 0c-0.9,0 -1.64,0.74 -1.64,1.64l0 2.22c0,0.91 0.74,1.64 1.64,1.64z"/>
   <polygon class="fil2" points="303.43,299.06 305.28,299.06 305.28,273.66 297.05,265.43 235.74,265.43 235.74,267.28 296.28,267.28 303.43,274.43 "/>
   <polygon class="fil2" points="295.08,304.13 296.93,304.13 296.93,280.43 289.88,273.39 235.74,273.38 235.74,275.23 289.12,275.24 295.08,281.2 "/>
   <polygon class="fil2" points="285.58,310.02 287.43,310.02 287.43,281.34 235.74,281.34 235.74,283.19 285.58,283.19 "/>
   <path class="fil2" d="M264.55 285.1l10.5 0c0.91,0 1.65,-0.74 1.65,-1.65l0 -2.38c0,-0.91 -0.74,-1.65 -1.65,-1.65l-10.5 0c-0.91,0 -1.65,0.74 -1.65,1.65l0 2.38c0,0.91 0.74,1.65 1.65,1.65z"/>
   <path class="fil2" d="M282.82 275.5l0 -2.38c0,-0.91 -0.74,-1.65 -1.65,-1.65l-10.5 0c-0.91,0 -1.65,0.74 -1.65,1.65l0 2.38c0,0.91 0.74,1.65 1.65,1.65l10.5 0c0.91,0 1.65,-0.74 1.65,-1.65z"/>
   <path class="fil2" d="M276.58 269.2l10.5 0c0.91,0 1.65,-0.74 1.65,-1.65l0 -2.38c0,-0.91 -0.74,-1.65 -1.65,-1.65l-10.5 0c-0.91,0 -1.65,0.74 -1.65,1.65l0 2.38c0,0.91 0.74,1.65 1.65,1.65z"/>
   <path class="fil2 str2" d="M250.45 109.8l8.86 0 0 24.83c11.81,1.93 21.25,5.99 28.29,12.2 10.26,9.01 15.61,21 16.14,36.05l-32.81 1.13c-1.39,-8.37 -4.37,-14.37 -8.94,-18.02 -4.56,-3.66 -11.42,-5.5 -20.55,-5.5 -9.43,0 -16.82,1.96 -22.13,5.88 -3.43,2.53 -5.17,5.88 -5.17,10.11 0,3.85 1.62,7.13 4.87,9.84 4.11,3.51 14.1,7.13 29.98,10.9 15.88,3.73 27.6,7.66 35.18,11.65 7.62,4.03 13.58,9.5 17.87,16.48 4.3,6.98 6.45,15.57 6.45,25.79 0,9.27 -2.57,17.99 -7.73,26.09 -5.17,8.11 -12.44,14.14 -21.87,18.06 -5.68,2.39 -12.21,4.05 -19.58,4.99l0 24.46 -8.86 0 0 -23.69c-2.21,0.11 -4.48,0.16 -6.81,0.16 -3.03,0 -5.96,-0.11 -8.78,-0.31l0 23.83 -8.86 0 0 -24.88c-12.11,-2.02 -21.95,-6.29 -29.53,-12.82 -10.97,-9.43 -17.49,-23.19 -19.65,-41.25l31.9 -3.17c1.92,10.67 5.77,18.48 11.61,23.49 5.85,5.01 13.73,7.5 23.64,7.5 10.48,0 18.4,-2.22 23.72,-6.67 5.32,-4.45 7.99,-9.65 7.99,-15.61 0,-3.85 -1.13,-7.09 -3.36,-9.8 -2.23,-2.68 -6.15,-5.02 -11.73,-6.98 -3.81,-1.36 -12.48,-3.7 -26.05,-7.09 -17.46,-4.37 -29.71,-9.73 -36.77,-16.1 -9.92,-8.94 -14.86,-19.84 -14.86,-32.69 0,-8.25 2.34,-16.02 6.97,-23.22 4.68,-7.2 11.39,-12.67 20.17,-16.44 4.78,-2.05 10.08,-3.54 15.92,-4.48l0 -24.7 8.86 0 0 23.74c2.26,-0.14 4.6,-0.21 7,-0.21 2.97,0 5.83,0.1 8.59,0.29l0 -23.81z"/>
  </g>
  <g id="_2431462752720">
   <path class="fil4" d="M558.42 264.55c-12.16,0 -23.85,-1.84 -35.09,-5.51 -11.24,-3.68 -20.96,-8.84 -29.16,-15.48l18.02 -25.24c13.15,10.32 28.48,15.48 46.01,15.48 8.76,0 15.73,-1.49 20.89,-4.45 5.16,-2.97 7.74,-7 7.74,-12.09 0,-4.81 -2.4,-8.55 -7.21,-11.24 -4.81,-2.69 -12.44,-4.59 -22.9,-5.72 -20.21,-2.26 -35.02,-7 -44.42,-14.21 -9.4,-7.21 -14.1,-17.53 -14.1,-30.96 0,-9.05 2.54,-17.03 7.63,-23.96 5.09,-6.93 12.23,-12.3 21.42,-16.12 9.19,-3.82 19.79,-5.73 31.81,-5.73 10.32,0 20.39,1.49 30.22,4.45 9.82,2.97 18.48,7.14 25.97,12.51l-16.33 24.39c-11.59,-8.06 -24.39,-12.09 -38.38,-12.09 -8.62,0 -15.51,1.41 -20.67,4.24 -5.16,2.83 -7.74,6.65 -7.74,11.45 0,4.66 2.23,8.27 6.68,10.81 4.45,2.54 11.91,4.45 22.37,5.72 20.07,2.26 35.06,7.25 44.95,14.95 9.9,7.71 14.84,18.27 14.84,31.7 0,9.33 -2.61,17.57 -7.84,24.7 -5.23,7.14 -12.58,12.65 -22.05,16.54 -9.47,3.89 -20.36,5.83 -32.66,5.83zm149.92 -0.21c-21.34,0 -37.92,-5.9 -49.72,-17.71 -11.8,-11.8 -17.71,-28.31 -17.71,-49.51l0 -84.39 34.78 0 0 84.39c0,11.31 2.86,20.21 8.59,26.72 5.72,6.5 13.75,9.75 24.07,9.75 10.04,0 17.96,-3.25 23.75,-9.75 5.8,-6.5 8.69,-15.41 8.69,-26.72l0 -84.39 34.78 0 0 84.39c0,21.2 -5.87,37.71 -17.6,49.51 -11.73,11.81 -28.27,17.71 -49.62,17.71zm209.92 -151.61l0 30.32 -45.38 0 0 118.11 -34.78 0 0 -118.11 -45.16 0 0 -30.32 125.32 0zm74.22 151.82c-12.16,0 -23.85,-1.84 -35.09,-5.51 -11.24,-3.68 -20.96,-8.84 -29.16,-15.48l18.02 -25.24c13.15,10.32 28.48,15.48 46.01,15.48 8.76,0 15.73,-1.49 20.89,-4.45 5.16,-2.97 7.74,-7 7.74,-12.09 0,-4.81 -2.4,-8.55 -7.21,-11.24 -4.81,-2.69 -12.44,-4.59 -22.9,-5.72 -20.21,-2.26 -35.02,-7 -44.42,-14.21 -9.4,-7.21 -14.1,-17.53 -14.1,-30.96 0,-9.05 2.54,-17.03 7.63,-23.96 5.09,-6.93 12.23,-12.3 21.42,-16.12 9.19,-3.82 19.79,-5.73 31.81,-5.73 10.32,0 20.39,1.49 30.22,4.45 9.82,2.97 18.48,7.14 25.97,12.51l-16.33 24.39c-11.59,-8.06 -24.39,-12.09 -38.38,-12.09 -8.62,0 -15.51,1.41 -20.67,4.24 -5.16,2.83 -7.74,6.65 -7.74,11.45 0,4.66 2.23,8.27 6.68,10.81 4.45,2.54 11.91,4.45 22.37,5.72 20.07,2.26 35.06,7.25 44.95,14.95 9.9,7.71 14.84,18.27 14.84,31.7 0,9.33 -2.61,17.57 -7.84,24.7 -5.23,7.14 -12.58,12.65 -22.05,16.54 -9.47,3.89 -20.36,5.83 -32.66,5.83z"/>
   <path class="fil4" d="M514.8 294.8c-2.63,-3.93 -5.95,-4.54 -9.76,-4.54 -4.39,0 -10.26,1.75 -10.15,7.4 0,4.92 5,5.91 9.88,6.87 4.39,0.84 8.81,1.72 8.77,5.72 0,4.73 -5.23,5.64 -8.51,5.64 -3.28,0 -7.48,-1.6 -9.12,-4.84l-1.83 0.91c2.06,4.08 6.79,5.8 10.95,5.8 4.46,0 10.53,-1.45 10.56,-7.47 0,-5.76 -5.34,-6.67 -10.49,-7.67 -4.5,-0.84 -8.16,-1.64 -8.16,-5.03 0,-4.27 4.96,-5.42 8.09,-5.42 3.01,0.04 6.14,0.5 8.08,3.62l1.68 -0.99zm22.62 22.54l0 -18.88 -1.87 0 0 10.49c0,3.89 -2.71,6.83 -6.6,6.87 -4.08,0.04 -6.71,-2.25 -6.71,-6.52l0 -10.83 -1.87 0 0 10.87c0,5.23 3.47,8.32 8.51,8.32 2.63,-0.04 5.26,-1.1 6.71,-3.7l0 3.4 1.83 0zm4.92 -18.84l0 18.84 1.87 0 0 -10.98c0,-3.43 2.71,-6.26 6.22,-6.29 1.1,0 2.21,0.27 3.2,0.88l0.84 -1.52c-1.26,-0.76 -2.63,-1.15 -4.04,-1.11 -2.4,0 -5.07,0.99 -6.26,3.55l-0.08 -3.36 -1.75 0zm22.24 18.84l2.06 0 7.9 -18.84 -2.06 0 -6.87 16.67 -6.87 -16.67 -2.06 0 7.9 18.84zm21.55 0.27c3.01,0 6.29,-1.22 8.12,-3.62l-1.34 -1.07c-1.41,1.87 -4.31,2.86 -6.79,2.86 -3.89,0 -7.28,-2.56 -7.67,-6.98l16.97 0c0.73,-7.36 -4,-10.6 -9.31,-10.6 -5.3,0 -9.57,4.08 -9.57,9.73 0,5.99 4.27,9.69 9.57,9.69zm-7.67 -10.45c0.42,-4.61 3.78,-7.25 7.67,-7.25 4.54,0 7.59,2.59 7.63,7.25l-15.29 0zm35.09 -8.66l-4.73 11.1 -2.17 5.49 -2.21 -5.46 -4.39 -11.14 -2.02 0 7.55 18.61 -3.47 8.09 1.98 0 11.48 -26.7 -2.02 0zm34.9 -7.9l0 16.59c0,11.44 -16.4,11.48 -16.4,0l0 -16.59 -2.02 0 0 16.59c0,14 20.45,13.96 20.45,0l0 -16.59 -2.02 0zm6.9 7.9l0 18.84 1.87 0 0 -10.49c0,-3.89 2.71,-6.83 6.6,-6.87 4.08,-0.04 6.71,2.25 6.71,6.52l0 10.83 1.87 0 0 -10.87c0,-5.23 -3.47,-8.32 -8.51,-8.32 -2.63,0.04 -5.26,1.1 -6.71,3.7l0 -3.36 -1.83 0zm23.8 -0.08l0 18.92 -1.87 0 0 -18.92 1.87 0zm-2.4 -6.07c0,1.98 3.01,1.98 3.01,0 0,-1.98 -3.01,-1.98 -3.01,0zm16.85 25.25c5.3,0 9.57,-3.66 9.57,-9.65 0,-5.99 -4.27,-9.8 -9.57,-9.8 -5.3,0 -9.57,3.81 -9.57,9.8 0,5.99 4.27,9.65 9.57,9.65zm0 -1.83c-4.27,0 -7.74,-2.94 -7.74,-7.82 0,-4.88 3.47,-8.05 7.74,-8.05 4.27,0 7.74,3.16 7.74,8.05 0,4.88 -3.47,7.82 -7.74,7.82zm13.88 -17.28l0 18.84 1.87 0 0 -10.49c0,-3.89 2.71,-6.83 6.6,-6.87 4.08,-0.04 6.71,2.25 6.71,6.52l0 10.83 1.87 0 0 -10.87c0,-5.23 -3.47,-8.32 -8.51,-8.32 -2.63,0.04 -5.26,1.1 -6.71,3.7l0 -3.36 -1.83 0zm40.35 18.84l2.06 0 0 -24.83 9.65 0 0 -1.83 -21.36 0 0 1.83 9.65 0 0 24.83zm26.74 -18.84l0 4.12c-1.56,-2.94 -4.66,-4.35 -7.71,-4.35 -5.26,0 -9.57,3.89 -9.57,9.65 0,5.76 4.31,9.73 9.57,9.73 3.05,0 5.87,-1.37 7.71,-4.31l0 4.01 1.87 0c0,-6.29 0,-12.55 0,-18.84l-1.87 0zm-7.71 1.56c10.49,0 10.49,15.75 0,15.75 -4.27,0 -7.71,-3.16 -7.71,-7.89 0,-4.73 3.43,-7.86 7.71,-7.86zm14.64 -9.46l0 26.74 1.83 0 0 -9.23 10.11 9.23 2.36 0 0 -0.11 -10.64 -9.84 9.53 -8.81 0 -0.08 -2.48 0 -8.89 8.24 0 -16.14 -1.83 0zm25.21 27.01c3.01,0 6.29,-1.22 8.12,-3.62l-1.34 -1.07c-1.41,1.87 -4.31,2.86 -6.79,2.86 -3.89,0 -7.28,-2.56 -7.67,-6.98l16.97 0c0.73,-7.36 -4,-10.6 -9.31,-10.6 -5.3,0 -9.57,4.08 -9.57,9.73 0,5.99 4.27,9.69 9.57,9.69zm-7.67 -10.45c0.42,-4.61 3.78,-7.25 7.67,-7.25 4.54,0 7.59,2.59 7.63,7.25l-15.3 0zm41.88 -7.17c4.23,0 7.7,2.63 7.7,7.93 0,5.22 -3.47,7.89 -7.7,7.89 -4.43,0 -7.71,-3.24 -7.71,-7.93 0,-4.69 3.36,-7.9 7.71,-7.9zm-9.57 -9.38l0 26.74 1.83 0 0 -4.16c1.56,2.86 4.65,4.46 7.86,4.46 5.26,0 9.42,-3.47 9.42,-9.73 0,-6.22 -4.2,-9.73 -9.46,-9.73 -3.24,0 -6.29,1.37 -7.82,4.42l0 -12.02 -1.83 0zm39.94 7.9l0 4.12c-1.56,-2.94 -4.66,-4.35 -7.71,-4.35 -5.26,0 -9.57,3.89 -9.57,9.65 0,5.76 4.31,9.73 9.57,9.73 3.05,0 5.87,-1.37 7.71,-4.31l0 4.01 1.87 0c0,-6.29 0,-12.55 0,-18.84l-1.87 0zm-7.71 1.56c10.49,0 10.49,15.75 0,15.75 -4.27,0 -7.71,-3.16 -7.71,-7.89 0,-4.73 3.43,-7.86 7.71,-7.86zm29.25 13.39c-1.53,1.53 -3.59,2.33 -5.61,2.33 -4.27,0 -7.86,-2.78 -7.86,-7.86 0,-5.07 3.58,-7.86 7.86,-7.86 2.02,0 4.12,0.72 5.65,2.25l1.22 -1.18c-1.91,-1.87 -4.39,-2.82 -6.87,-2.82 -5.46,0 -9.69,3.66 -9.69,9.61 0,5.95 4.39,9.61 9.69,9.61 2.48,0 4.96,-0.91 6.87,-2.82l-1.26 -1.26zm5.07 -22.85l0 26.74 1.83 0 0 -9.23 10.11 9.23 2.36 0 0 -0.11 -10.64 -9.84 9.53 -8.81 0 -0.08 -2.48 0 -8.89 8.24 0 -16.14 -1.83 0zm46.53 4.2c-2.63,-3.93 -5.95,-4.54 -9.76,-4.54 -4.39,0 -10.26,1.75 -10.15,7.4 0,4.92 5,5.91 9.88,6.87 4.39,0.84 8.81,1.72 8.77,5.72 0,4.73 -5.23,5.64 -8.51,5.64 -3.28,0 -7.48,-1.6 -9.12,-4.84l-1.83 0.91c2.06,4.08 6.79,5.8 10.95,5.8 4.46,0 10.53,-1.45 10.56,-7.47 0,-5.76 -5.34,-6.67 -10.49,-7.67 -4.5,-0.84 -8.16,-1.64 -8.16,-5.03 0,-4.27 4.96,-5.42 8.09,-5.42 3.01,0.04 6.14,0.5 8.08,3.62l1.68 -0.99zm18.88 3.7l-4.73 11.1 -2.17 5.49 -2.21 -5.46 -4.39 -11.14 -2.02 0 7.55 18.61 -3.47 8.09 1.98 0 11.48 -26.7 -2.02 0zm19.72 2.21c-1.87,-1.75 -4.27,-2.52 -7.02,-2.52 -3.81,-0.04 -7.51,1.56 -7.47,5.26 0.04,3.78 3.66,4.46 7.32,5.07 3.09,0.5 6.22,1.03 6.14,3.74 -0.11,2.97 -3.59,3.58 -5.87,3.58 -2.52,0 -5.34,-0.95 -6.9,-3.2l-1.37 1.22c1.64,2.52 4.92,3.78 8.24,3.78 3.32,0 7.63,-1.1 7.74,-5.26 0.19,-4.39 -4.42,-4.96 -7.78,-5.53 -2.36,-0.42 -5.64,-0.91 -5.72,-3.43 -0.08,-2.4 2.75,-3.51 5.68,-3.47 2.1,0 3.96,0.3 5.87,1.98l1.15 -1.22zm7.44 -7.7l0 5.49 -4.01 0 0 1.56 4.01 0 0 11.48c0,3.7 1.3,6.07 5.3,6.07 1.18,0 2.36,-0.38 3.55,-0.95l-0.65 -1.53c-0.95,0.46 -1.98,0.76 -2.9,0.76 -2.94,0 -3.47,-1.79 -3.47,-4.35l0 -11.48 6.41 0 0 -1.56 -6.41 0 0 -5.68 -1.83 0.19zm21.05 24.6c3.01,0 6.29,-1.22 8.12,-3.62l-1.34 -1.07c-1.41,1.87 -4.31,2.86 -6.79,2.86 -3.89,0 -7.28,-2.56 -7.67,-6.98l16.97 0c0.73,-7.36 -4,-10.6 -9.31,-10.6 -5.3,0 -9.57,4.08 -9.57,9.73 0,5.99 4.27,9.69 9.57,9.69zm-7.67 -10.45c0.42,-4.61 3.78,-7.25 7.67,-7.25 4.54,0 7.59,2.59 7.63,7.25l-15.3 0zm51.23 10.18l0 -11.29c0,-4.69 -3.28,-7.93 -7.9,-7.93 -2.9,0 -5.83,1.56 -6.98,4.65 -1.1,-3.36 -4.12,-4.65 -6.98,-4.65 -2.44,0 -4.85,1.03 -6.14,3.51l-0.04 -3.13 -1.75 0 0 18.84 1.87 0 0 -11.18c0,-3.62 2.44,-6.26 6.03,-6.26 3.58,0 6.07,2.63 6.07,6.26l0 11.18 1.87 0 0 -11.18c0,-3.62 2.48,-6.29 6.07,-6.29 3.59,0 6.03,2.56 6.03,6.18l0 11.29 1.87 0z"/>
  </g>
 </g>
</svg>
